<svg width="1150" height="225" viewBox="0 0 1150 225" fill="none" xmlns="http://www.w3.org/2000/svg">
<rect x="2" y="2" width="1146" height="221" rx="8" fill="#121212" stroke="url(#paint0_linear_133_25)" stroke-width="4"/>
<path d="M486.992 41L486.048 38.408H481.44L480.496 41H478.16L482.512 29.656H485.072L489.392 41H486.992ZM483.744 32.104L482.176 36.392H485.312L483.744 32.104ZM492.811 41H490.683V29.416H492.811V41ZM497.217 41H495.089V29.416H497.217V41ZM505.833 34.824H507.577C508.681 34.824 509.353 34.184 509.353 33.208C509.353 32.2 508.681 31.576 507.577 31.576H505.833V34.824ZM507.849 36.728H505.817V41H503.609V29.656H507.849C510.089 29.656 511.577 31.144 511.577 33.192C511.577 35.256 510.089 36.728 507.849 36.728ZM517.764 33.096V35.24C517.524 35.192 517.316 35.176 517.124 35.176C516.036 35.176 515.092 35.704 515.092 37.4V41H512.964V33.128H515.028V34.296C515.508 33.256 516.596 33.064 517.268 33.064C517.444 33.064 517.604 33.08 517.764 33.096ZM520.735 36.168H524.255C524.223 35.384 523.711 34.616 522.495 34.616C521.391 34.616 520.783 35.448 520.735 36.168ZM524.463 38.216L526.239 38.744C525.839 40.104 524.591 41.24 522.655 41.24C520.495 41.24 518.591 39.688 518.591 37.032C518.591 34.52 520.447 32.888 522.463 32.888C524.895 32.888 526.351 34.44 526.351 36.968C526.351 37.272 526.319 37.592 526.319 37.624H520.687C520.735 38.664 521.615 39.416 522.671 39.416C523.663 39.416 524.207 38.92 524.463 38.216ZM530.155 41H528.027V33.128H530.059V34.088C530.491 33.32 531.499 32.904 532.363 32.904C533.435 32.904 534.299 33.368 534.699 34.216C535.323 33.256 536.155 32.904 537.195 32.904C538.651 32.904 540.043 33.784 540.043 35.896V41H537.979V36.328C537.979 35.48 537.563 34.84 536.587 34.84C535.675 34.84 535.131 35.544 535.131 36.392V41H533.019V36.328C533.019 35.48 532.587 34.84 531.627 34.84C530.699 34.84 530.155 35.528 530.155 36.392V41ZM544.327 41H542.199V33.128H544.327V41ZM541.943 30.552C541.943 29.816 542.535 29.224 543.255 29.224C543.991 29.224 544.567 29.816 544.567 30.552C544.567 31.256 543.991 31.848 543.255 31.848C542.535 31.848 541.943 31.256 541.943 30.552ZM551.757 41C551.725 40.84 551.693 40.472 551.693 40.152C551.261 40.888 550.349 41.208 549.517 41.208C547.613 41.208 546.525 39.816 546.525 38.104V33.128H548.653V37.672C548.653 38.552 549.101 39.256 550.093 39.256C551.037 39.256 551.581 38.616 551.581 37.704V33.128H553.709V39.576C553.709 40.184 553.757 40.728 553.789 41H551.757ZM558.108 41H555.98V33.128H558.012V34.088C558.444 33.32 559.452 32.904 560.316 32.904C561.388 32.904 562.252 33.368 562.652 34.216C563.276 33.256 564.108 32.904 565.148 32.904C566.604 32.904 567.996 33.784 567.996 35.896V41H565.932V36.328C565.932 35.48 565.516 34.84 564.54 34.84C563.628 34.84 563.084 35.544 563.084 36.392V41H560.972V36.328C560.972 35.48 560.54 34.84 559.58 34.84C558.652 34.84 558.108 35.528 558.108 36.392V41ZM576.489 34.824H578.233C579.337 34.824 580.009 34.184 580.009 33.208C580.009 32.2 579.337 31.576 578.233 31.576H576.489V34.824ZM578.505 36.728H576.473V41H574.265V29.656H578.505C580.745 29.656 582.233 31.144 582.233 33.192C582.233 35.256 580.745 36.728 578.505 36.728ZM585.827 41H583.699V29.416H585.827V41ZM587.578 38.856C587.578 37.448 588.618 36.664 589.93 36.472L591.866 36.184C592.314 36.12 592.458 35.896 592.458 35.624C592.458 35.064 592.026 34.6 591.13 34.6C590.202 34.6 589.69 35.192 589.626 35.88L587.738 35.48C587.866 34.248 589.002 32.888 591.114 32.888C593.61 32.888 594.538 34.296 594.538 35.88V39.752C594.538 40.168 594.586 40.728 594.634 41H592.682C592.634 40.792 592.602 40.36 592.602 40.056C592.202 40.68 591.45 41.224 590.282 41.224C588.602 41.224 587.578 40.088 587.578 38.856ZM590.73 39.64C591.626 39.64 592.458 39.208 592.458 37.816V37.464L590.682 37.736C590.138 37.816 589.706 38.12 589.706 38.728C589.706 39.192 590.042 39.64 590.73 39.64ZM598.811 36.472V41H596.683V33.128H598.747V34.104C599.227 33.288 600.171 32.92 601.019 32.92C602.971 32.92 603.867 34.312 603.867 36.04V41H601.739V36.408C601.739 35.528 601.307 34.84 600.283 34.84C599.355 34.84 598.811 35.56 598.811 36.472ZM605.355 38.808L607.179 38.408C607.227 39.032 607.691 39.608 608.619 39.608C609.323 39.608 609.659 39.24 609.659 38.824C609.659 38.472 609.419 38.184 608.811 38.056L607.771 37.816C606.251 37.48 605.563 36.568 605.563 35.464C605.563 34.056 606.811 32.888 608.507 32.888C610.747 32.888 611.499 34.312 611.595 35.16L609.819 35.56C609.755 35.096 609.419 34.504 608.523 34.504C607.963 34.504 607.515 34.84 607.515 35.288C607.515 35.672 607.803 35.912 608.235 35.992L609.355 36.232C610.907 36.552 611.691 37.496 611.691 38.648C611.691 39.928 610.699 41.24 608.635 41.24C606.267 41.24 605.451 39.704 605.355 38.808ZM619.755 41H617.515V29.656H619.755V41ZM624.311 36.472V41H622.183V33.128H624.247V34.104C624.727 33.288 625.671 32.92 626.519 32.92C628.471 32.92 629.367 34.312 629.367 36.04V41H627.239V36.408C627.239 35.528 626.807 34.84 625.783 34.84C624.855 34.84 624.311 35.56 624.311 36.472ZM635.063 34.856C633.975 34.856 633.063 35.64 633.063 37.064C633.063 38.488 633.991 39.288 635.079 39.288C636.167 39.288 636.711 38.568 636.887 37.96L638.759 38.584C638.407 39.896 637.175 41.24 635.079 41.24C632.759 41.24 630.935 39.48 630.935 37.064C630.935 34.632 632.727 32.888 635.015 32.888C637.159 32.888 638.375 34.216 638.711 35.544L636.807 36.184C636.615 35.528 636.119 34.856 635.063 34.856ZM642.452 41H640.324V29.416H642.452V41ZM649.851 41C649.819 40.84 649.787 40.472 649.787 40.152C649.355 40.888 648.443 41.208 647.611 41.208C645.707 41.208 644.618 39.816 644.618 38.104V33.128H646.747V37.672C646.747 38.552 647.195 39.256 648.187 39.256C649.131 39.256 649.675 38.616 649.675 37.704V33.128H651.803V39.576C651.803 40.184 651.851 40.728 651.883 41H649.851ZM661.546 29.416V39.576C661.546 40.104 661.578 40.68 661.61 41H659.578C659.546 40.84 659.498 40.456 659.498 40.088C659.146 40.712 658.346 41.192 657.29 41.192C655.05 41.192 653.45 39.432 653.45 37.048C653.45 34.744 655.002 32.936 657.226 32.936C658.586 32.936 659.226 33.496 659.45 33.912V29.416H661.546ZM655.594 37.048C655.594 38.456 656.426 39.288 657.546 39.288C658.634 39.288 659.482 38.456 659.482 37.032C659.482 35.624 658.634 34.84 657.546 34.84C656.458 34.84 655.594 35.64 655.594 37.048ZM665.407 36.168H668.927C668.895 35.384 668.383 34.616 667.167 34.616C666.063 34.616 665.455 35.448 665.407 36.168ZM669.135 38.216L670.911 38.744C670.511 40.104 669.263 41.24 667.327 41.24C665.167 41.24 663.263 39.688 663.263 37.032C663.263 34.52 665.119 32.888 667.135 32.888C669.567 32.888 671.023 34.44 671.023 36.968C671.023 37.272 670.991 37.592 670.991 37.624H665.359C665.407 38.664 666.287 39.416 667.343 39.416C668.335 39.416 668.879 38.92 669.135 38.216Z" fill="white"/>
<path d="M508.296 81L507.064 77.832H502.04L500.84 81H499.16L503.672 69.656H505.48L509.992 81H508.296ZM504.536 71.288L502.6 76.376H506.504L504.536 71.288ZM512.176 77.128C512.176 78.712 512.992 79.88 514.432 79.88C515.808 79.88 516.656 78.68 516.656 77.096C516.656 75.512 515.824 74.424 514.448 74.424C513.072 74.424 512.176 75.544 512.176 77.128ZM516.672 79.96V79.832C516.304 80.568 515.488 81.208 514.288 81.208C512.032 81.208 510.64 79.416 510.64 77.128C510.64 74.952 512.112 73.096 514.288 73.096C515.648 73.096 516.384 73.768 516.64 74.392V69.416H518.128V79.576C518.128 80.312 518.192 80.872 518.208 81H516.752C516.72 80.824 516.672 80.424 516.672 79.96ZM524.462 77.064H520.126V75.752H524.462V77.064ZM528.196 81H526.628V69.656H533.524V71.112H528.196V74.76H533.028V76.232H528.196V81ZM539.146 73.224V74.824C538.922 74.792 538.698 74.776 538.49 74.776C537.226 74.776 536.378 75.448 536.378 77.144V81H534.874V73.304H536.346V74.648C536.906 73.464 537.866 73.176 538.65 73.176C538.858 73.176 539.066 73.208 539.146 73.224ZM541.647 76.36H545.855C545.823 75.256 545.103 74.392 543.743 74.392C542.479 74.392 541.711 75.368 541.647 76.36ZM546.079 78.36L547.375 78.808C546.943 80.168 545.711 81.24 543.919 81.24C541.855 81.24 540.047 79.736 540.047 77.128C540.047 74.712 541.791 73.064 543.727 73.064C546.095 73.064 547.423 74.696 547.423 77.096C547.423 77.288 547.407 77.48 547.391 77.576H541.599C541.631 78.952 542.623 79.912 543.919 79.912C545.167 79.912 545.791 79.224 546.079 78.36ZM550.319 76.36H554.527C554.495 75.256 553.775 74.392 552.415 74.392C551.151 74.392 550.383 75.368 550.319 76.36ZM554.751 78.36L556.047 78.808C555.615 80.168 554.383 81.24 552.591 81.24C550.527 81.24 548.719 79.736 548.719 77.128C548.719 74.712 550.463 73.064 552.399 73.064C554.767 73.064 556.095 74.696 556.095 77.096C556.095 77.288 556.079 77.48 556.062 77.576H550.271C550.303 78.952 551.295 79.912 552.591 79.912C553.839 79.912 554.463 79.224 554.751 78.36ZM574.43 81H572.878V72.168L569.006 81H567.566L563.726 72.168V81H562.174V69.656H564.302L568.302 78.888L572.334 69.656H574.43V81ZM582.227 80.072C581.811 80.872 580.851 81.24 579.955 81.24C578.163 81.24 577.075 79.896 577.075 78.152V73.304H578.579V77.928C578.579 78.984 579.059 79.912 580.323 79.912C581.539 79.912 582.147 79.112 582.147 77.944V73.304H583.651V79.576C583.651 80.184 583.699 80.728 583.731 81H582.291C582.259 80.824 582.227 80.392 582.227 80.072ZM585.498 79L586.858 78.52C586.954 79.32 587.562 79.96 588.65 79.96C589.498 79.96 589.962 79.48 589.962 78.936C589.962 78.456 589.61 78.088 588.97 77.944L587.658 77.656C586.458 77.4 585.738 76.584 585.738 75.496C585.738 74.184 586.97 73.064 588.474 73.064C590.586 73.064 591.242 74.44 591.402 75.128L590.074 75.624C590.01 75.224 589.69 74.344 588.474 74.344C587.706 74.344 587.194 74.84 587.194 75.368C587.194 75.832 587.482 76.168 588.074 76.296L589.322 76.568C590.714 76.872 591.45 77.72 591.45 78.856C591.45 79.944 590.538 81.24 588.634 81.24C586.522 81.24 585.626 79.88 585.498 79ZM594.94 81H593.452V73.304H594.94V81ZM593.116 70.392C593.116 69.784 593.596 69.304 594.188 69.304C594.796 69.304 595.276 69.784 595.276 70.392C595.276 70.984 594.796 71.464 594.188 71.464C593.596 71.464 593.116 70.984 593.116 70.392ZM600.731 74.456C599.515 74.456 598.395 75.352 598.395 77.144C598.395 78.904 599.499 79.848 600.747 79.848C602.187 79.848 602.715 78.872 602.891 78.264L604.219 78.84C603.851 79.944 602.747 81.24 600.747 81.24C598.507 81.24 596.859 79.48 596.859 77.144C596.859 74.744 598.539 73.064 600.731 73.064C602.779 73.064 603.835 74.344 604.155 75.512L602.795 76.088C602.603 75.336 602.043 74.456 600.731 74.456ZM617.071 81H610.143V69.656H611.711V79.528H617.071V81ZM620.237 81H618.749V73.304H620.237V81ZM618.413 70.392C618.413 69.784 618.893 69.304 619.485 69.304C620.093 69.304 620.573 69.784 620.573 70.392C620.573 70.984 620.093 71.464 619.485 71.464C618.893 71.464 618.413 70.984 618.413 70.392ZM622.076 79L623.436 78.52C623.532 79.32 624.14 79.96 625.228 79.96C626.076 79.96 626.54 79.48 626.54 78.936C626.54 78.456 626.188 78.088 625.548 77.944L624.236 77.656C623.036 77.4 622.316 76.584 622.316 75.496C622.316 74.184 623.548 73.064 625.052 73.064C627.164 73.064 627.82 74.44 627.98 75.128L626.652 75.624C626.588 75.224 626.268 74.344 625.052 74.344C624.284 74.344 623.772 74.84 623.772 75.368C623.772 75.832 624.06 76.168 624.652 76.296L625.9 76.568C627.292 76.872 628.028 77.72 628.028 78.856C628.028 79.944 627.116 81.24 625.212 81.24C623.1 81.24 622.204 79.88 622.076 79ZM632.046 70.872V73.304H633.71V74.664H632.046V78.664C632.046 79.368 632.334 79.72 633.118 79.72C633.31 79.72 633.582 79.688 633.71 79.656V80.936C633.582 80.984 633.198 81.08 632.686 81.08C631.374 81.08 630.542 80.28 630.542 78.888V74.664H629.07V73.304H629.486C630.318 73.304 630.67 72.792 630.67 72.12V70.872H632.046ZM636.615 76.36H640.823C640.791 75.256 640.071 74.392 638.711 74.392C637.447 74.392 636.679 75.368 636.615 76.36ZM641.047 78.36L642.343 78.808C641.911 80.168 640.679 81.24 638.887 81.24C636.823 81.24 635.015 79.736 635.015 77.128C635.015 74.712 636.759 73.064 638.695 73.064C641.063 73.064 642.391 74.696 642.391 77.096C642.391 77.288 642.375 77.48 642.359 77.576H636.567C636.599 78.952 637.591 79.912 638.887 79.912C640.135 79.912 640.759 79.224 641.047 78.36ZM645.815 76.552V81H644.311V73.304H645.783V74.408C646.343 73.448 647.255 73.08 648.151 73.08C649.991 73.08 650.903 74.408 650.903 76.12V81H649.399V76.376C649.399 75.304 648.951 74.44 647.607 74.44C646.423 74.44 645.815 75.384 645.815 76.552ZM654.784 81H653.296V73.304H654.784V81ZM652.96 70.392C652.96 69.784 653.44 69.304 654.032 69.304C654.64 69.304 655.12 69.784 655.12 70.392C655.12 70.984 654.64 71.464 654.032 71.464C653.44 71.464 652.96 70.984 652.96 70.392ZM658.847 76.552V81H657.343V73.304H658.815V74.408C659.375 73.448 660.286 73.08 661.183 73.08C663.023 73.08 663.935 74.408 663.935 76.12V81H662.431V76.376C662.431 75.304 661.983 74.44 660.639 74.44C659.455 74.44 658.847 75.384 658.847 76.552ZM665.767 81.416L667.223 81.08C667.335 82.152 668.151 82.968 669.319 82.968C670.935 82.968 671.671 82.136 671.671 80.472V79.368C671.303 80.072 670.471 80.632 669.319 80.632C667.271 80.632 665.783 79.08 665.783 76.904C665.783 74.824 667.207 73.16 669.319 73.16C670.503 73.16 671.303 73.608 671.687 74.376V73.304H673.175V80.424C673.175 82.376 672.215 84.28 669.319 84.28C667.399 84.28 665.959 83.064 665.767 81.416ZM669.543 79.368C670.839 79.368 671.735 78.392 671.735 76.904C671.735 75.416 670.839 74.44 669.543 74.44C668.215 74.44 667.319 75.416 667.319 76.904C667.319 78.408 668.183 79.368 669.543 79.368Z" fill="white"/>
<path d="M502.008 102.608H504.328C506.424 102.608 508.184 101.2 508.184 98.352C508.184 95.488 506.456 94.048 504.36 94.048H502.008V102.608ZM504.376 104H500.44V92.656H504.408C507.288 92.656 509.8 94.624 509.8 98.352C509.8 102.064 507.256 104 504.376 104ZM515.092 102.896C516.372 102.896 517.492 101.936 517.492 100.144C517.492 98.368 516.372 97.408 515.092 97.408C513.812 97.408 512.692 98.368 512.692 100.144C512.692 101.936 513.812 102.896 515.092 102.896ZM515.092 96.064C517.396 96.064 519.028 97.808 519.028 100.144C519.028 102.496 517.396 104.24 515.092 104.24C512.788 104.24 511.156 102.496 511.156 100.144C511.156 97.808 512.788 96.064 515.092 96.064ZM525.132 96.304H526.684L528.684 102.096L530.38 96.304H531.964L529.468 104H527.916L525.868 98.144L523.868 104H522.284L519.756 96.304H521.404L523.132 102.096L525.132 96.304ZM534.987 99.552V104H533.483V96.304H534.955V97.408C535.515 96.448 536.427 96.08 537.323 96.08C539.163 96.08 540.075 97.408 540.075 99.12V104H538.571V99.376C538.571 98.304 538.123 97.44 536.779 97.44C535.595 97.44 534.987 98.384 534.987 99.552ZM543.972 104H542.468V92.416H543.972V104ZM549.826 102.896C551.106 102.896 552.226 101.936 552.226 100.144C552.226 98.368 551.106 97.408 549.826 97.408C548.546 97.408 547.426 98.368 547.426 100.144C547.426 101.936 548.546 102.896 549.826 102.896ZM549.826 96.064C552.13 96.064 553.762 97.808 553.762 100.144C553.762 102.496 552.13 104.24 549.826 104.24C547.522 104.24 545.89 102.496 545.89 100.144C545.89 97.808 547.522 96.064 549.826 96.064ZM555.206 101.936C555.206 100.56 556.214 99.792 557.542 99.6L559.622 99.296C560.086 99.232 560.214 98.992 560.214 98.72C560.214 97.968 559.718 97.344 558.55 97.344C557.494 97.344 556.902 98 556.806 98.896L555.366 98.56C555.526 97.088 556.854 96.064 558.518 96.064C560.822 96.064 561.718 97.376 561.718 98.88V102.736C561.718 103.408 561.782 103.808 561.814 104H560.342C560.31 103.808 560.262 103.52 560.262 102.96C559.926 103.504 559.158 104.24 557.782 104.24C556.214 104.24 555.206 103.152 555.206 101.936ZM557.99 102.976C559.222 102.976 560.214 102.384 560.214 100.704V100.352L557.862 100.704C557.222 100.8 556.742 101.168 556.742 101.856C556.742 102.432 557.222 102.976 557.99 102.976ZM564.957 100.128C564.957 101.712 565.773 102.88 567.213 102.88C568.589 102.88 569.437 101.68 569.437 100.096C569.437 98.512 568.605 97.424 567.229 97.424C565.853 97.424 564.957 98.544 564.957 100.128ZM569.453 102.96V102.832C569.085 103.568 568.269 104.208 567.069 104.208C564.813 104.208 563.421 102.416 563.421 100.128C563.421 97.952 564.893 96.096 567.069 96.096C568.429 96.096 569.165 96.768 569.421 97.392V92.416H570.909V102.576C570.909 103.312 570.973 103.872 570.989 104H569.533C569.501 103.824 569.453 103.424 569.453 102.96ZM585.5 94.112H581.708V104H580.14V94.112H576.348V92.656H585.5V94.112ZM588.717 102.896C589.997 102.896 591.117 101.936 591.117 100.144C591.117 98.368 589.997 97.408 588.717 97.408C587.437 97.408 586.317 98.368 586.317 100.144C586.317 101.936 587.437 102.896 588.717 102.896ZM588.717 96.064C591.021 96.064 592.653 97.808 592.653 100.144C592.653 102.496 591.021 104.24 588.717 104.24C586.413 104.24 584.781 102.496 584.781 100.144C584.781 97.808 586.413 96.064 588.717 96.064ZM605.665 104H598.737V92.656H600.305V102.528H605.665V104ZM608.831 104H607.343V96.304H608.831V104ZM607.007 93.392C607.007 92.784 607.487 92.304 608.079 92.304C608.687 92.304 609.167 92.784 609.167 93.392C609.167 93.984 608.687 94.464 608.079 94.464C607.487 94.464 607.007 93.984 607.007 93.392ZM610.669 102L612.029 101.52C612.125 102.32 612.733 102.96 613.821 102.96C614.669 102.96 615.133 102.48 615.133 101.936C615.133 101.456 614.781 101.088 614.141 100.944L612.829 100.656C611.629 100.4 610.909 99.584 610.909 98.496C610.909 97.184 612.141 96.064 613.645 96.064C615.757 96.064 616.413 97.44 616.573 98.128L615.245 98.624C615.181 98.224 614.861 97.344 613.645 97.344C612.877 97.344 612.365 97.84 612.365 98.368C612.365 98.832 612.653 99.168 613.245 99.296L614.493 99.568C615.885 99.872 616.621 100.72 616.621 101.856C616.621 102.944 615.709 104.24 613.805 104.24C611.693 104.24 610.797 102.88 610.669 102ZM620.64 93.872V96.304H622.304V97.664H620.64V101.664C620.64 102.368 620.928 102.72 621.712 102.72C621.904 102.72 622.176 102.688 622.304 102.656V103.936C622.176 103.984 621.792 104.08 621.28 104.08C619.968 104.08 619.136 103.28 619.136 101.888V97.664H617.664V96.304H618.08C618.912 96.304 619.264 95.792 619.264 95.12V93.872H620.64ZM625.209 99.36H629.417C629.385 98.256 628.665 97.392 627.305 97.392C626.041 97.392 625.273 98.368 625.209 99.36ZM629.641 101.36L630.937 101.808C630.505 103.168 629.273 104.24 627.481 104.24C625.417 104.24 623.609 102.736 623.609 100.128C623.609 97.712 625.353 96.064 627.289 96.064C629.657 96.064 630.985 97.696 630.985 100.096C630.985 100.288 630.969 100.48 630.953 100.576H625.161C625.193 101.952 626.185 102.912 627.481 102.912C628.729 102.912 629.353 102.224 629.641 101.36ZM634.409 99.552V104H632.905V96.304H634.377V97.408C634.937 96.448 635.849 96.08 636.745 96.08C638.585 96.08 639.497 97.408 639.497 99.12V104H637.993V99.376C637.993 98.304 637.545 97.44 636.201 97.44C635.017 97.44 634.409 98.384 634.409 99.552ZM646.929 98.32C646.929 101.28 648.913 102.8 651.025 102.8C653.137 102.8 655.121 101.28 655.121 98.32C655.121 95.36 653.137 93.856 651.025 93.856C648.913 93.856 646.929 95.36 646.929 98.32ZM645.329 98.32C645.329 94.528 648.177 92.416 651.025 92.416C653.873 92.416 656.721 94.528 656.721 98.32C656.721 102.112 653.873 104.24 651.025 104.24C648.177 104.24 645.329 102.112 645.329 98.32ZM659.182 96.304V95.008C659.182 93.296 660.318 92.368 661.71 92.368C662.222 92.368 662.542 92.48 662.606 92.528V93.872C662.526 93.84 662.334 93.776 661.95 93.776C661.422 93.776 660.734 94.032 660.734 95.088V96.304H664.238V95.008C664.238 93.296 665.374 92.368 666.766 92.368C667.278 92.368 667.598 92.48 667.662 92.528V93.872C667.582 93.84 667.39 93.776 667.006 93.776C666.477 93.776 665.79 94.032 665.79 95.088V96.304H669.39V92.416H670.878V104H669.39V97.664H665.79V104H664.238V97.664H660.734V104H659.182V97.664H657.758V96.304H659.182ZM674.924 104H673.436V96.304H674.924V104ZM673.1 93.392C673.1 92.784 673.58 92.304 674.172 92.304C674.78 92.304 675.26 92.784 675.26 93.392C675.26 93.984 674.78 94.464 674.172 94.464C673.58 94.464 673.1 93.984 673.1 93.392ZM678.987 99.552V104H677.483V96.304H678.955V97.408C679.515 96.448 680.427 96.08 681.323 96.08C683.163 96.08 684.075 97.408 684.075 99.12V104H682.571V99.376C682.571 98.304 682.123 97.44 680.779 97.44C679.595 97.44 678.987 98.384 678.987 99.552ZM687.444 99.36H691.652C691.62 98.256 690.9 97.392 689.54 97.392C688.276 97.392 687.508 98.368 687.444 99.36ZM691.876 101.36L693.172 101.808C692.74 103.168 691.508 104.24 689.716 104.24C687.652 104.24 685.844 102.736 685.844 100.128C685.844 97.712 687.588 96.064 689.524 96.064C691.892 96.064 693.22 97.696 693.22 100.096C693.22 100.288 693.204 100.48 693.188 100.576H687.396C687.428 101.952 688.42 102.912 689.716 102.912C690.964 102.912 691.588 102.224 691.876 101.36Z" fill="white"/>
<path d="M502.008 120.952H504.28C505.64 120.952 506.472 120.2 506.472 119.032C506.472 117.832 505.64 117.064 504.28 117.064H502.008V120.952ZM504.568 122.36H502.008V127H500.44V115.656H504.568C506.664 115.656 508.072 117.112 508.072 119.016C508.072 120.936 506.664 122.36 504.568 122.36ZM511.175 127H509.671V115.416H511.175V127ZM513.253 124.936C513.253 123.56 514.261 122.792 515.589 122.6L517.669 122.296C518.133 122.232 518.261 121.992 518.261 121.72C518.261 120.968 517.765 120.344 516.597 120.344C515.541 120.344 514.949 121 514.853 121.896L513.413 121.56C513.573 120.088 514.901 119.064 516.565 119.064C518.869 119.064 519.765 120.376 519.765 121.88V125.736C519.765 126.408 519.829 126.808 519.861 127H518.389C518.357 126.808 518.309 126.52 518.309 125.96C517.973 126.504 517.205 127.24 515.829 127.24C514.261 127.24 513.253 126.152 513.253 124.936ZM516.037 125.976C517.269 125.976 518.261 125.384 518.261 123.704V123.352L515.909 123.704C515.269 123.8 514.789 124.168 514.789 124.856C514.789 125.432 515.269 125.976 516.037 125.976ZM523.872 130.216H522.224L524.144 126.152L520.832 119.304H522.56L524.96 124.616L527.264 119.304H528.88L523.872 130.216ZM541.719 118.232L540.311 118.728C540.183 117.912 539.495 116.792 537.911 116.792C536.631 116.792 535.719 117.624 535.719 118.68C535.719 119.496 536.215 120.12 537.175 120.328L538.871 120.696C540.759 121.112 541.815 122.296 541.815 123.88C541.815 125.64 540.311 127.24 537.895 127.24C535.159 127.24 533.863 125.48 533.655 123.864L535.159 123.384C535.271 124.648 536.167 125.816 537.879 125.816C539.447 125.816 540.215 125 540.215 124.008C540.215 123.192 539.655 122.488 538.519 122.248L536.903 121.896C535.287 121.544 534.135 120.488 534.135 118.792C534.135 117.016 535.783 115.416 537.879 115.416C540.439 115.416 541.463 117 541.719 118.232ZM546.951 125.896C548.231 125.896 549.351 124.936 549.351 123.144C549.351 121.368 548.231 120.408 546.951 120.408C545.671 120.408 544.551 121.368 544.551 123.144C544.551 124.936 545.671 125.896 546.951 125.896ZM546.951 119.064C549.255 119.064 550.887 120.808 550.887 123.144C550.887 125.496 549.255 127.24 546.951 127.24C544.647 127.24 543.015 125.496 543.015 123.144C543.015 120.808 544.647 119.064 546.951 119.064ZM554.315 122.552V127H552.811V119.304H554.283V120.408C554.843 119.448 555.755 119.08 556.651 119.08C558.491 119.08 559.403 120.408 559.403 122.12V127H557.899V122.376C557.899 121.304 557.451 120.44 556.107 120.44C554.923 120.44 554.315 121.384 554.315 122.552ZM561.236 127.416L562.692 127.08C562.804 128.152 563.62 128.968 564.788 128.968C566.404 128.968 567.14 128.136 567.14 126.472V125.368C566.772 126.072 565.94 126.632 564.788 126.632C562.74 126.632 561.252 125.08 561.252 122.904C561.252 120.824 562.676 119.16 564.788 119.16C565.972 119.16 566.772 119.608 567.156 120.376V119.304H568.644V126.424C568.644 128.376 567.684 130.28 564.788 130.28C562.868 130.28 561.428 129.064 561.236 127.416ZM565.012 125.368C566.308 125.368 567.204 124.392 567.204 122.904C567.204 121.416 566.308 120.44 565.012 120.44C563.684 120.44 562.788 121.416 562.788 122.904C562.788 124.408 563.652 125.368 565.012 125.368ZM570.326 125L571.686 124.52C571.782 125.32 572.39 125.96 573.478 125.96C574.326 125.96 574.79 125.48 574.79 124.936C574.79 124.456 574.438 124.088 573.798 123.944L572.486 123.656C571.286 123.4 570.566 122.584 570.566 121.496C570.566 120.184 571.798 119.064 573.302 119.064C575.414 119.064 576.07 120.44 576.23 121.128L574.902 121.624C574.838 121.224 574.518 120.344 573.302 120.344C572.534 120.344 572.022 120.84 572.022 121.368C572.022 121.832 572.31 122.168 572.902 122.296L574.15 122.568C575.542 122.872 576.278 123.72 576.278 124.856C576.278 125.944 575.366 127.24 573.462 127.24C571.35 127.24 570.454 125.88 570.326 125ZM584.04 127H582.44V115.656H584.04V127ZM588.268 122.552V127H586.764V119.304H588.236V120.408C588.796 119.448 589.708 119.08 590.604 119.08C592.444 119.08 593.356 120.408 593.356 122.12V127H591.852V122.376C591.852 121.304 591.404 120.44 590.06 120.44C588.876 120.44 588.268 121.384 588.268 122.552ZM607.765 127L606.533 123.832H601.509L600.309 127H598.629L603.141 115.656H604.949L609.461 127H607.765ZM604.005 117.288L602.069 122.376H605.973L604.005 117.288ZM612.331 122.552V127H610.827V119.304H612.299V120.408C612.859 119.448 613.771 119.08 614.667 119.08C616.507 119.08 617.419 120.408 617.419 122.12V127H615.915V122.376C615.915 121.304 615.467 120.44 614.123 120.44C612.939 120.44 612.331 121.384 612.331 122.552ZM621.731 130.216H620.083L622.003 126.152L618.691 119.304H620.419L622.819 124.616L625.123 119.304H626.739L621.731 130.216ZM633.226 121.32C633.226 124.28 635.21 125.8 637.322 125.8C639.434 125.8 641.418 124.28 641.418 121.32C641.418 118.36 639.434 116.856 637.322 116.856C635.21 116.856 633.226 118.36 633.226 121.32ZM631.626 121.32C631.626 117.528 634.474 115.416 637.322 115.416C640.17 115.416 643.018 117.528 643.018 121.32C643.018 125.112 640.17 127.24 637.322 127.24C634.474 127.24 631.626 125.112 631.626 121.32ZM649.286 119.224V120.824C649.062 120.792 648.838 120.776 648.63 120.776C647.366 120.776 646.518 121.448 646.518 123.144V127H645.014V119.304H646.486V120.648C647.046 119.464 648.006 119.176 648.79 119.176C648.998 119.176 649.206 119.208 649.286 119.224ZM651.707 123.128C651.707 124.712 652.523 125.88 653.963 125.88C655.339 125.88 656.187 124.68 656.187 123.096C656.187 121.512 655.355 120.424 653.979 120.424C652.603 120.424 651.707 121.544 651.707 123.128ZM656.203 125.96V125.832C655.835 126.568 655.019 127.208 653.819 127.208C651.563 127.208 650.171 125.416 650.171 123.128C650.171 120.952 651.643 119.096 653.819 119.096C655.179 119.096 655.915 119.768 656.171 120.392V115.416H657.659V125.576C657.659 126.312 657.723 126.872 657.739 127H656.283C656.251 126.824 656.203 126.424 656.203 125.96ZM661.194 122.36H665.402C665.37 121.256 664.65 120.392 663.29 120.392C662.026 120.392 661.258 121.368 661.194 122.36ZM665.626 124.36L666.922 124.808C666.49 126.168 665.258 127.24 663.466 127.24C661.402 127.24 659.594 125.736 659.594 123.128C659.594 120.712 661.338 119.064 663.274 119.064C665.642 119.064 666.97 120.696 666.97 123.096C666.97 123.288 666.954 123.48 666.938 123.576H661.146C661.178 124.952 662.17 125.912 663.466 125.912C664.714 125.912 665.338 125.224 665.626 124.36ZM673.161 119.224V120.824C672.937 120.792 672.713 120.776 672.505 120.776C671.241 120.776 670.393 121.448 670.393 123.144V127H668.889V119.304H670.361V120.648C670.921 119.464 671.881 119.176 672.665 119.176C672.873 119.176 673.081 119.208 673.161 119.224Z" fill="white"/>
<path d="M509.368 150H507.8V144.96H502.008V150H500.44V138.656H502.008V143.504H507.8V138.656H509.368V150ZM513.581 150H512.093V142.304H513.581V150ZM511.757 139.392C511.757 138.784 512.237 138.304 512.829 138.304C513.437 138.304 513.917 138.784 513.917 139.392C513.917 139.984 513.437 140.464 512.829 140.464C512.237 140.464 511.757 139.984 511.757 139.392ZM515.579 150.416L517.035 150.08C517.147 151.152 517.963 151.968 519.131 151.968C520.747 151.968 521.483 151.136 521.483 149.472V148.368C521.115 149.072 520.283 149.632 519.131 149.632C517.083 149.632 515.595 148.08 515.595 145.904C515.595 143.824 517.019 142.16 519.131 142.16C520.315 142.16 521.115 142.608 521.499 143.376V142.304H522.987V149.424C522.987 151.376 522.027 153.28 519.131 153.28C517.211 153.28 515.771 152.064 515.579 150.416ZM519.355 148.368C520.651 148.368 521.547 147.392 521.547 145.904C521.547 144.416 520.651 143.44 519.355 143.44C518.027 143.44 517.131 144.416 517.131 145.904C517.131 147.408 517.995 148.368 519.355 148.368ZM526.893 145.472V150H525.389V138.416H526.893V143.2C527.453 142.384 528.349 142.08 529.229 142.08C531.069 142.08 531.981 143.408 531.981 145.12V150H530.477V145.376C530.477 144.304 530.029 143.44 528.685 143.44C527.533 143.44 526.925 144.336 526.893 145.472ZM546.39 150L545.158 146.832H540.134L538.934 150H537.254L541.766 138.656H543.574L548.086 150H546.39ZM542.63 140.288L540.694 145.376H544.598L542.63 140.288ZM554.196 149.072C553.78 149.872 552.82 150.24 551.924 150.24C550.132 150.24 549.044 148.896 549.044 147.152V142.304H550.548V146.928C550.548 147.984 551.028 148.912 552.292 148.912C553.508 148.912 554.116 148.112 554.116 146.944V142.304H555.62V148.576C555.62 149.184 555.668 149.728 555.7 150H554.26C554.228 149.824 554.196 149.392 554.196 149.072ZM559.004 146.128C559.004 147.712 559.82 148.88 561.26 148.88C562.636 148.88 563.484 147.68 563.484 146.096C563.484 144.512 562.652 143.424 561.276 143.424C559.9 143.424 559.004 144.544 559.004 146.128ZM563.5 148.96V148.832C563.132 149.568 562.316 150.208 561.116 150.208C558.86 150.208 557.468 148.416 557.468 146.128C557.468 143.952 558.94 142.096 561.116 142.096C562.476 142.096 563.212 142.768 563.468 143.392V138.416H564.956V148.576C564.956 149.312 565.02 149.872 565.036 150H563.58C563.548 149.824 563.5 149.424 563.5 148.96ZM569.002 150H567.514V142.304H569.002V150ZM567.178 139.392C567.178 138.784 567.658 138.304 568.25 138.304C568.858 138.304 569.338 138.784 569.338 139.392C569.338 139.984 568.858 140.464 568.25 140.464C567.658 140.464 567.178 139.984 567.178 139.392ZM574.857 148.896C576.137 148.896 577.257 147.936 577.257 146.144C577.257 144.368 576.137 143.408 574.857 143.408C573.577 143.408 572.457 144.368 572.457 146.144C572.457 147.936 573.577 148.896 574.857 148.896ZM574.857 142.064C577.161 142.064 578.793 143.808 578.793 146.144C578.793 148.496 577.161 150.24 574.857 150.24C572.553 150.24 570.921 148.496 570.921 146.144C570.921 143.808 572.553 142.064 574.857 142.064ZM584.158 144.32C584.158 140.528 587.006 138.416 589.854 138.416C592.702 138.416 595.55 140.528 595.55 144.32C595.55 146.112 594.91 147.52 593.95 148.512L595.278 150L594.206 150.944L592.83 149.424C591.934 149.968 590.894 150.24 589.854 150.24C587.006 150.24 584.158 148.112 584.158 144.32ZM585.758 144.32C585.758 147.28 587.742 148.8 589.854 148.8C590.558 148.8 591.23 148.64 591.838 148.304L589.87 146.096L590.958 145.152L592.942 147.392C593.55 146.656 593.95 145.632 593.95 144.32C593.95 141.36 591.966 139.856 589.854 139.856C587.742 139.856 585.758 141.36 585.758 144.32ZM602.618 149.072C602.202 149.872 601.242 150.24 600.346 150.24C598.554 150.24 597.466 148.896 597.466 147.152V142.304H598.97V146.928C598.97 147.984 599.45 148.912 600.714 148.912C601.93 148.912 602.538 148.112 602.538 146.944V142.304H604.042V148.576C604.042 149.184 604.09 149.728 604.122 150H602.682C602.65 149.824 602.618 149.392 602.618 149.072ZM606.128 147.936C606.128 146.56 607.136 145.792 608.464 145.6L610.544 145.296C611.008 145.232 611.136 144.992 611.136 144.72C611.136 143.968 610.64 143.344 609.472 143.344C608.416 143.344 607.824 144 607.728 144.896L606.288 144.56C606.448 143.088 607.776 142.064 609.44 142.064C611.744 142.064 612.64 143.376 612.64 144.88V148.736C612.64 149.408 612.704 149.808 612.736 150H611.264C611.232 149.808 611.184 149.52 611.184 148.96C610.848 149.504 610.08 150.24 608.704 150.24C607.136 150.24 606.128 149.152 606.128 147.936ZM608.912 148.976C610.144 148.976 611.136 148.384 611.136 146.704V146.352L608.784 146.704C608.144 146.8 607.664 147.168 607.664 147.856C607.664 148.432 608.144 148.976 608.912 148.976ZM616.487 150H614.983V138.416H616.487V150ZM620.534 150H619.046V142.304H620.534V150ZM618.71 139.392C618.71 138.784 619.19 138.304 619.782 138.304C620.39 138.304 620.87 138.784 620.87 139.392C620.87 139.984 620.39 140.464 619.782 140.464C619.19 140.464 618.71 139.984 618.71 139.392ZM625.109 139.872V142.304H626.773V143.664H625.109V147.664C625.109 148.368 625.397 148.72 626.181 148.72C626.373 148.72 626.645 148.688 626.773 148.656V149.936C626.645 149.984 626.261 150.08 625.749 150.08C624.437 150.08 623.605 149.28 623.605 147.888V143.664H622.133V142.304H622.549C623.381 142.304 623.733 141.792 623.733 141.12V139.872H625.109ZM630.778 153.216H629.13L631.05 149.152L627.738 142.304H629.466L631.866 147.616L634.17 142.304H635.786L630.778 153.216Z" fill="white"/>
<path d="M507.368 173H500.44V161.656H502.008V171.528H507.368V173ZM510.534 173H509.046V165.304H510.534V173ZM508.71 162.392C508.71 161.784 509.19 161.304 509.782 161.304C510.39 161.304 510.87 161.784 510.87 162.392C510.87 162.984 510.39 163.464 509.782 163.464C509.19 163.464 508.71 162.984 508.71 162.392ZM512.373 171L513.733 170.52C513.829 171.32 514.437 171.96 515.525 171.96C516.373 171.96 516.837 171.48 516.837 170.936C516.837 170.456 516.485 170.088 515.845 169.944L514.533 169.656C513.333 169.4 512.613 168.584 512.613 167.496C512.613 166.184 513.845 165.064 515.349 165.064C517.461 165.064 518.117 166.44 518.277 167.128L516.949 167.624C516.885 167.224 516.565 166.344 515.349 166.344C514.581 166.344 514.069 166.84 514.069 167.368C514.069 167.832 514.357 168.168 514.949 168.296L516.197 168.568C517.589 168.872 518.325 169.72 518.325 170.856C518.325 171.944 517.413 173.24 515.509 173.24C513.397 173.24 512.501 171.88 512.373 171ZM522.343 162.872V165.304H524.007V166.664H522.343V170.664C522.343 171.368 522.631 171.72 523.415 171.72C523.607 171.72 523.879 171.688 524.007 171.656V172.936C523.879 172.984 523.495 173.08 522.983 173.08C521.671 173.08 520.839 172.28 520.839 170.888V166.664H519.367V165.304H519.783C520.615 165.304 520.967 164.792 520.967 164.12V162.872H522.343ZM526.912 168.36H531.12C531.088 167.256 530.368 166.392 529.008 166.392C527.744 166.392 526.976 167.368 526.912 168.36ZM531.344 170.36L532.64 170.808C532.208 172.168 530.976 173.24 529.184 173.24C527.12 173.24 525.312 171.736 525.312 169.128C525.312 166.712 527.056 165.064 528.992 165.064C531.36 165.064 532.688 166.696 532.688 169.096C532.688 169.288 532.672 169.48 532.656 169.576H526.864C526.896 170.952 527.888 171.912 529.184 171.912C530.432 171.912 531.056 171.224 531.344 170.36ZM536.112 168.552V173H534.608V165.304H536.08V166.408C536.64 165.448 537.552 165.08 538.448 165.08C540.288 165.08 541.2 166.408 541.2 168.12V173H539.696V168.376C539.696 167.304 539.248 166.44 537.904 166.44C536.72 166.44 536.112 167.384 536.112 168.552ZM558.073 170.632L560.521 161.656H562.137L558.905 173H557.289L554.329 163.8L551.401 173H549.833L546.553 161.656H548.169L550.665 170.536L553.513 161.656H555.161L558.073 170.632ZM565.143 173H563.655V165.304H565.143V173ZM563.319 162.392C563.319 161.784 563.799 161.304 564.391 161.304C564.999 161.304 565.479 161.784 565.479 162.392C565.479 162.984 564.999 163.464 564.391 163.464C563.799 163.464 563.319 162.984 563.319 162.392ZM569.718 162.872V165.304H571.382V166.664H569.718V170.664C569.718 171.368 570.006 171.72 570.79 171.72C570.982 171.72 571.254 171.688 571.382 171.656V172.936C571.254 172.984 570.87 173.08 570.358 173.08C569.046 173.08 568.214 172.28 568.214 170.888V166.664H566.742V165.304H567.158C567.99 165.304 568.342 164.792 568.342 164.12V162.872H569.718ZM574.893 168.472V173H573.389V161.416H574.893V166.2C575.453 165.384 576.349 165.08 577.229 165.08C579.069 165.08 579.981 166.408 579.981 168.12V173H578.477V168.376C578.477 167.304 578.029 166.44 576.685 166.44C575.533 166.44 574.925 167.336 574.893 168.472ZM588.102 173H586.534V161.656H593.43V163.112H588.102V166.76H592.934V168.232H588.102V173ZM599.052 165.224V166.824C598.828 166.792 598.604 166.776 598.396 166.776C597.132 166.776 596.284 167.448 596.284 169.144V173H594.78V165.304H596.252V166.648C596.812 165.464 597.772 165.176 598.556 165.176C598.764 165.176 598.972 165.208 599.052 165.224ZM602.143 173H600.655V165.304H602.143V173ZM600.319 162.392C600.319 161.784 600.799 161.304 601.391 161.304C601.999 161.304 602.479 161.784 602.479 162.392C602.479 162.984 601.999 163.464 601.391 163.464C600.799 163.464 600.319 162.984 600.319 162.392ZM605.678 168.36H609.886C609.854 167.256 609.134 166.392 607.774 166.392C606.51 166.392 605.742 167.368 605.678 168.36ZM610.11 170.36L611.406 170.808C610.974 172.168 609.742 173.24 607.95 173.24C605.886 173.24 604.078 171.736 604.078 169.128C604.078 166.712 605.822 165.064 607.758 165.064C610.126 165.064 611.454 166.696 611.454 169.096C611.454 169.288 611.438 169.48 611.422 169.576H605.63C605.662 170.952 606.654 171.912 607.95 171.912C609.198 171.912 609.822 171.224 610.11 170.36ZM614.878 168.552V173H613.374V165.304H614.846V166.408C615.406 165.448 616.318 165.08 617.214 165.08C619.054 165.08 619.966 166.408 619.966 168.12V173H618.462V168.376C618.462 167.304 618.014 166.44 616.67 166.44C615.486 166.44 614.878 167.384 614.878 168.552ZM623.254 169.128C623.254 170.712 624.07 171.88 625.51 171.88C626.886 171.88 627.734 170.68 627.734 169.096C627.734 167.512 626.902 166.424 625.526 166.424C624.15 166.424 623.254 167.544 623.254 169.128ZM627.75 171.96V171.832C627.382 172.568 626.566 173.208 625.366 173.208C623.11 173.208 621.718 171.416 621.718 169.128C621.718 166.952 623.19 165.096 625.366 165.096C626.726 165.096 627.462 165.768 627.718 166.392V161.416H629.206V171.576C629.206 172.312 629.27 172.872 629.286 173H627.83C627.798 172.824 627.75 172.424 627.75 171.96ZM631.044 171L632.404 170.52C632.5 171.32 633.108 171.96 634.196 171.96C635.044 171.96 635.508 171.48 635.508 170.936C635.508 170.456 635.156 170.088 634.516 169.944L633.204 169.656C632.004 169.4 631.284 168.584 631.284 167.496C631.284 166.184 632.516 165.064 634.02 165.064C636.132 165.064 636.788 166.44 636.948 167.128L635.62 167.624C635.556 167.224 635.236 166.344 634.02 166.344C633.252 166.344 632.74 166.84 632.74 167.368C632.74 167.832 633.028 168.168 633.62 168.296L634.868 168.568C636.26 168.872 636.996 169.72 636.996 170.856C636.996 171.944 636.084 173.24 634.18 173.24C632.068 173.24 631.172 171.88 631.044 171ZM644.759 173H643.159V161.656H644.759V173ZM648.987 168.552V173H647.483V165.304H648.955V166.408C649.515 165.448 650.427 165.08 651.323 165.08C653.163 165.08 654.075 166.408 654.075 168.12V173H652.571V168.376C652.571 167.304 652.123 166.44 650.779 166.44C649.595 166.44 648.987 167.384 648.987 168.552ZM666.5 173L663.908 168.36H662.212V173H660.628V161.656H664.9C667.044 161.656 668.372 163.16 668.372 165.032C668.372 166.664 667.332 167.928 665.62 168.248L668.324 173H666.5ZM662.212 166.952H664.612C665.892 166.952 666.756 166.2 666.756 165.032C666.756 163.832 665.892 163.064 664.612 163.064H662.212V166.952ZM671.037 168.36H675.245C675.213 167.256 674.493 166.392 673.133 166.392C671.869 166.392 671.101 167.368 671.037 168.36ZM675.469 170.36L676.765 170.808C676.333 172.168 675.101 173.24 673.309 173.24C671.245 173.24 669.437 171.736 669.437 169.128C669.437 166.712 671.181 165.064 673.117 165.064C675.485 165.064 676.813 166.696 676.813 169.096C676.813 169.288 676.797 169.48 676.781 169.576H670.989C671.021 170.952 672.013 171.912 673.309 171.912C674.557 171.912 675.181 171.224 675.469 170.36ZM678.253 170.936C678.253 169.56 679.261 168.792 680.589 168.6L682.669 168.296C683.133 168.232 683.261 167.992 683.261 167.72C683.261 166.968 682.765 166.344 681.597 166.344C680.541 166.344 679.949 167 679.853 167.896L678.413 167.56C678.573 166.088 679.901 165.064 681.565 165.064C683.869 165.064 684.765 166.376 684.765 167.88V171.736C684.765 172.408 684.829 172.808 684.861 173H683.389C683.357 172.808 683.309 172.52 683.309 171.96C682.973 172.504 682.205 173.24 680.829 173.24C679.261 173.24 678.253 172.152 678.253 170.936ZM681.037 171.976C682.269 171.976 683.261 171.384 683.261 169.704V169.352L680.909 169.704C680.269 169.8 679.789 170.168 679.789 170.856C679.789 171.432 680.269 171.976 681.037 171.976ZM688.612 173H687.108V161.416H688.612V173ZM703.203 163.112H699.411V173H697.843V163.112H694.051V161.656H703.203V163.112ZM705.815 173H704.327V165.304H705.815V173ZM703.991 162.392C703.991 161.784 704.471 161.304 705.063 161.304C705.671 161.304 706.151 161.784 706.151 162.392C706.151 162.984 705.671 163.464 705.063 163.464C704.471 163.464 703.991 162.984 703.991 162.392ZM709.862 173H708.374V165.304H709.814V166.328C710.294 165.48 711.254 165.08 712.15 165.08C713.11 165.08 714.038 165.544 714.454 166.536C715.062 165.432 716.054 165.08 717.03 165.08C718.374 165.08 719.686 165.992 719.686 168.008V173H718.198V168.168C718.198 167.16 717.702 166.408 716.566 166.408C715.51 166.408 714.79 167.24 714.79 168.344V173H713.286V168.168C713.286 167.176 712.806 166.408 711.654 166.408C710.582 166.408 709.862 167.208 709.862 168.36V173ZM723.069 168.36H727.277C727.245 167.256 726.525 166.392 725.165 166.392C723.901 166.392 723.133 167.368 723.069 168.36ZM727.501 170.36L728.797 170.808C728.365 172.168 727.133 173.24 725.341 173.24C723.277 173.24 721.469 171.736 721.469 169.128C721.469 166.712 723.213 165.064 725.149 165.064C727.517 165.064 728.845 166.696 728.845 169.096C728.845 169.288 728.829 169.48 728.812 169.576H723.021C723.053 170.952 724.045 171.912 725.341 171.912C726.589 171.912 727.213 171.224 727.501 170.36Z" fill="white"/>
<path d="M501.32 190.32C501.32 193.28 503.304 194.8 505.416 194.8C507.528 194.8 509.512 193.28 509.512 190.32C509.512 187.36 507.528 185.856 505.416 185.856C503.304 185.856 501.32 187.36 501.32 190.32ZM499.72 190.32C499.72 186.528 502.568 184.416 505.416 184.416C508.264 184.416 511.112 186.528 511.112 190.32C511.112 194.112 508.264 196.24 505.416 196.24C502.568 196.24 499.72 194.112 499.72 190.32ZM517.38 188.224V189.824C517.156 189.792 516.932 189.776 516.724 189.776C515.46 189.776 514.612 190.448 514.612 192.144V196H513.108V188.304H514.58V189.648C515.14 188.464 516.1 188.176 516.884 188.176C517.092 188.176 517.3 188.208 517.38 188.224ZM518.345 196.416L519.801 196.08C519.913 197.152 520.729 197.968 521.897 197.968C523.513 197.968 524.249 197.136 524.249 195.472V194.368C523.881 195.072 523.049 195.632 521.897 195.632C519.849 195.632 518.361 194.08 518.361 191.904C518.361 189.824 519.785 188.16 521.897 188.16C523.081 188.16 523.881 188.608 524.265 189.376V188.304H525.753V195.424C525.753 197.376 524.793 199.28 521.897 199.28C519.977 199.28 518.537 198.064 518.345 196.416ZM522.121 194.368C523.417 194.368 524.313 193.392 524.313 191.904C524.313 190.416 523.417 189.44 522.121 189.44C520.793 189.44 519.897 190.416 519.897 191.904C519.897 193.408 520.761 194.368 522.121 194.368ZM527.597 193.936C527.597 192.56 528.605 191.792 529.933 191.6L532.013 191.296C532.477 191.232 532.605 190.992 532.605 190.72C532.605 189.968 532.109 189.344 530.941 189.344C529.885 189.344 529.293 190 529.197 190.896L527.757 190.56C527.917 189.088 529.245 188.064 530.909 188.064C533.213 188.064 534.109 189.376 534.109 190.88V194.736C534.109 195.408 534.173 195.808 534.205 196H532.733C532.701 195.808 532.653 195.52 532.653 194.96C532.317 195.504 531.549 196.24 530.173 196.24C528.605 196.24 527.597 195.152 527.597 193.936ZM530.381 194.976C531.613 194.976 532.605 194.384 532.605 192.704V192.352L530.253 192.704C529.613 192.8 529.133 193.168 529.133 193.856C529.133 194.432 529.613 194.976 530.381 194.976ZM537.956 191.552V196H536.452V188.304H537.924V189.408C538.484 188.448 539.396 188.08 540.292 188.08C542.132 188.08 543.044 189.408 543.044 191.12V196H541.54V191.376C541.54 190.304 541.092 189.44 539.748 189.44C538.564 189.44 537.956 190.384 537.956 191.552ZM546.924 196H545.436V188.304H546.924V196ZM545.1 185.392C545.1 184.784 545.58 184.304 546.172 184.304C546.78 184.304 547.26 184.784 547.26 185.392C547.26 185.984 546.78 186.464 546.172 186.464C545.58 186.464 545.1 185.984 545.1 185.392ZM555.019 196H548.843V194.688L553.067 189.664H548.907V188.304H554.939V189.616L550.715 194.64H555.019V196ZM557.912 191.36H562.12C562.088 190.256 561.368 189.392 560.008 189.392C558.744 189.392 557.976 190.368 557.912 191.36ZM562.344 193.36L563.64 193.808C563.208 195.168 561.976 196.24 560.184 196.24C558.12 196.24 556.312 194.736 556.312 192.128C556.312 189.712 558.056 188.064 559.992 188.064C562.36 188.064 563.688 189.696 563.688 192.096C563.688 192.288 563.672 192.48 563.656 192.576H557.864C557.896 193.952 558.888 194.912 560.184 194.912C561.432 194.912 562.056 194.224 562.344 193.36ZM576.696 196H569.768V184.656H571.336V194.528H576.696V196ZM579.862 196H578.374V188.304H579.862V196ZM578.038 185.392C578.038 184.784 578.518 184.304 579.11 184.304C579.718 184.304 580.198 184.784 580.198 185.392C580.198 185.984 579.718 186.464 579.11 186.464C578.518 186.464 578.038 185.984 578.038 185.392ZM581.701 194L583.061 193.52C583.157 194.32 583.765 194.96 584.853 194.96C585.701 194.96 586.165 194.48 586.165 193.936C586.165 193.456 585.813 193.088 585.173 192.944L583.861 192.656C582.661 192.4 581.941 191.584 581.941 190.496C581.941 189.184 583.173 188.064 584.677 188.064C586.789 188.064 587.445 189.44 587.605 190.128L586.277 190.624C586.213 190.224 585.893 189.344 584.677 189.344C583.909 189.344 583.397 189.84 583.397 190.368C583.397 190.832 583.685 191.168 584.277 191.296L585.525 191.568C586.917 191.872 587.653 192.72 587.653 193.856C587.653 194.944 586.741 196.24 584.837 196.24C582.725 196.24 581.829 194.88 581.701 194ZM591.671 185.872V188.304H593.335V189.664H591.671V193.664C591.671 194.368 591.959 194.72 592.743 194.72C592.935 194.72 593.207 194.688 593.335 194.656V195.936C593.207 195.984 592.823 196.08 592.311 196.08C590.999 196.08 590.167 195.28 590.167 193.888V189.664H588.695V188.304H589.111C589.943 188.304 590.295 187.792 590.295 187.12V185.872H591.671ZM596.24 191.36H600.448C600.416 190.256 599.696 189.392 598.336 189.392C597.072 189.392 596.304 190.368 596.24 191.36ZM600.672 193.36L601.968 193.808C601.536 195.168 600.304 196.24 598.512 196.24C596.448 196.24 594.64 194.736 594.64 192.128C594.64 189.712 596.384 188.064 598.32 188.064C600.688 188.064 602.016 189.696 602.016 192.096C602.016 192.288 602 192.48 601.984 192.576H596.192C596.224 193.952 597.216 194.912 598.512 194.912C599.76 194.912 600.384 194.224 600.672 193.36ZM605.44 191.552V196H603.936V188.304H605.408V189.408C605.968 188.448 606.88 188.08 607.776 188.08C609.616 188.08 610.528 189.408 610.528 191.12V196H609.024V191.376C609.024 190.304 608.576 189.44 607.232 189.44C606.048 189.44 605.44 190.384 605.44 191.552ZM614.409 196H612.921V188.304H614.409V196ZM612.585 185.392C612.585 184.784 613.065 184.304 613.657 184.304C614.265 184.304 614.745 184.784 614.745 185.392C614.745 185.984 614.265 186.464 613.657 186.464C613.065 186.464 612.585 185.984 612.585 185.392ZM618.472 191.552V196H616.968V188.304H618.44V189.408C619 188.448 619.911 188.08 620.808 188.08C622.648 188.08 623.56 189.408 623.56 191.12V196H622.056V191.376C622.056 190.304 621.608 189.44 620.264 189.44C619.08 189.44 618.472 190.384 618.472 191.552ZM625.392 196.416L626.848 196.08C626.96 197.152 627.776 197.968 628.944 197.968C630.56 197.968 631.296 197.136 631.296 195.472V194.368C630.928 195.072 630.096 195.632 628.944 195.632C626.896 195.632 625.408 194.08 625.408 191.904C625.408 189.824 626.832 188.16 628.944 188.16C630.128 188.16 630.928 188.608 631.312 189.376V188.304H632.8V195.424C632.8 197.376 631.84 199.28 628.944 199.28C627.024 199.28 625.584 198.064 625.392 196.416ZM629.168 194.368C630.464 194.368 631.36 193.392 631.36 191.904C631.36 190.416 630.464 189.44 629.168 189.44C627.84 189.44 626.944 190.416 626.944 191.904C626.944 193.408 627.808 194.368 629.168 194.368ZM638.642 190.32C638.642 186.528 641.49 184.416 644.338 184.416C647.186 184.416 650.034 186.528 650.034 190.32C650.034 192.112 649.394 193.52 648.434 194.512L649.762 196L648.69 196.944L647.314 195.424C646.418 195.968 645.378 196.24 644.338 196.24C641.49 196.24 638.642 194.112 638.642 190.32ZM640.242 190.32C640.242 193.28 642.226 194.8 644.338 194.8C645.042 194.8 645.714 194.64 646.322 194.304L644.354 192.096L645.442 191.152L647.426 193.392C648.034 192.656 648.434 191.632 648.434 190.32C648.434 187.36 646.45 185.856 644.338 185.856C642.226 185.856 640.242 187.36 640.242 190.32ZM657.102 195.072C656.686 195.872 655.726 196.24 654.83 196.24C653.038 196.24 651.95 194.896 651.95 193.152V188.304H653.454V192.928C653.454 193.984 653.934 194.912 655.198 194.912C656.414 194.912 657.022 194.112 657.022 192.944V188.304H658.526V194.576C658.526 195.184 658.574 195.728 658.606 196H657.166C657.134 195.824 657.102 195.392 657.102 195.072ZM661.99 191.36H666.198C666.166 190.256 665.446 189.392 664.086 189.392C662.822 189.392 662.054 190.368 661.99 191.36ZM666.422 193.36L667.718 193.808C667.286 195.168 666.054 196.24 664.262 196.24C662.198 196.24 660.39 194.736 660.39 192.128C660.39 189.712 662.134 188.064 664.07 188.064C666.438 188.064 667.766 189.696 667.766 192.096C667.766 192.288 667.75 192.48 667.734 192.576H661.942C661.974 193.952 662.966 194.912 664.262 194.912C665.51 194.912 666.134 194.224 666.422 193.36ZM674.524 195.072C674.108 195.872 673.148 196.24 672.252 196.24C670.46 196.24 669.372 194.896 669.372 193.152V188.304H670.876V192.928C670.876 193.984 671.356 194.912 672.62 194.912C673.836 194.912 674.444 194.112 674.444 192.944V188.304H675.948V194.576C675.948 195.184 675.996 195.728 676.028 196H674.588C674.556 195.824 674.524 195.392 674.524 195.072ZM679.412 191.36H683.62C683.588 190.256 682.868 189.392 681.508 189.392C680.244 189.392 679.476 190.368 679.412 191.36ZM683.844 193.36L685.14 193.808C684.708 195.168 683.476 196.24 681.684 196.24C679.62 196.24 677.812 194.736 677.812 192.128C677.812 189.712 679.556 188.064 681.492 188.064C683.86 188.064 685.188 189.696 685.188 192.096C685.188 192.288 685.172 192.48 685.156 192.576H679.364C679.396 193.952 680.388 194.912 681.684 194.912C682.932 194.912 683.556 194.224 683.844 193.36Z" fill="white"/>
<path d="M478 74.5L482.333 79L491 70" stroke="white" stroke-width="1.5" stroke-linecap="round"/>
<path d="M478 98L482.333 102.5L491 93.5" stroke="white" stroke-width="1.5" stroke-linecap="round"/>
<path d="M478 121L482.333 125.5L491 116.5" stroke="white" stroke-width="1.5" stroke-linecap="round"/>
<path d="M478 144L482.333 148.5L491 139.5" stroke="white" stroke-width="1.5" stroke-linecap="round"/>
<path d="M478 167L482.333 171.5L491 162.5" stroke="white" stroke-width="1.5" stroke-linecap="round"/>
<path d="M478 190L482.333 194.5L491 185.5" stroke="white" stroke-width="1.5" stroke-linecap="round"/>
<defs>
<linearGradient id="paint0_linear_133_25" x1="0" y1="112.5" x2="1150" y2="112.5" gradientUnits="userSpaceOnUse">
<stop stop-color="#AD2489"/>
<stop offset="1" stop-color="#004B91"/>
</linearGradient>
</defs>
</svg>
