<svg width="35" height="36" viewBox="0 0 35 36" fill="none" xmlns="http://www.w3.org/2000/svg">
<path d="M34.5 18.1194C34.5 27.4105 26.8934 34.9507 17.5 34.9507C8.10658 34.9507 0.5 27.4105 0.5 18.1194C0.5 8.82827 8.10658 1.28809 17.5 1.28809C26.8934 1.28809 34.5 8.82827 34.5 18.1194Z" stroke="white"/>
<path d="M17.4999 20.5C20.257 20.5 22.492 17.8137 22.492 14.5C22.492 11.1863 20.257 8.5 17.4999 8.5C14.7428 8.5 12.5078 11.1863 12.5078 14.5C12.5078 17.8137 14.7428 20.5 17.4999 20.5Z" fill="white"/>
<path d="M27.2845 25.5999C26.3859 23.7999 24.6886 22.2999 22.4921 21.3999C21.893 21.1999 21.1941 21.1999 20.6949 21.4999C19.6965 22.0999 18.6981 22.3999 17.5 22.3999C16.3019 22.3999 15.3035 22.0999 14.3051 21.4999C13.8059 21.2999 13.107 21.1999 12.5079 21.4999C10.3114 22.3999 8.61408 23.8999 7.7155 25.6999C7.01661 26.9999 8.11487 28.4999 9.6125 28.4999H25.3875C26.8851 28.4999 27.9834 26.9999 27.2845 25.5999Z" fill="white"/>
</svg>
