<svg width="450" height="515" viewBox="0 0 450 515" fill="none" xmlns="http://www.w3.org/2000/svg">
<rect x="320" width="130" height="515" fill="url(#paint0_linear_133_24)"/>
<rect x="189" width="130" height="110" fill="white"/>
<line y1="109.5" x2="450" y2="109.5" stroke="white"/>
<line y1="172.5" x2="450" y2="172.5" stroke="white"/>
<line y1="300.5" x2="450" y2="300.5" stroke="white"/>
<line y1="241.5" x2="450" y2="241.5" stroke="white"/>
<line y1="361.5" x2="450" y2="361.5" stroke="white"/>
<line y1="441.5" x2="450" y2="441.5" stroke="white"/>
<line y1="514.5" x2="450" y2="514.5" stroke="white"/>
<path d="M21.936 87.496L23.984 79.656H26.24L23.104 91H20.832L18.24 82.92L15.648 91H13.344L10.192 79.656H12.528L14.608 87.464L17.12 79.656H19.408L21.936 87.496ZM29.7015 86.376V91H27.5735V79.416H29.7015V83.784C30.2135 83.176 31.0775 82.92 31.8295 82.92C33.8295 82.92 34.7575 84.312 34.7575 86.04V91H32.6295V86.408C32.6295 85.528 32.1975 84.84 31.1735 84.84C30.2775 84.84 29.7495 85.512 29.7015 86.376ZM36.4373 88.856C36.4373 87.448 37.4773 86.664 38.7893 86.472L40.7253 86.184C41.1733 86.12 41.3173 85.896 41.3173 85.624C41.3173 85.064 40.8853 84.6 39.9893 84.6C39.0613 84.6 38.5493 85.192 38.4853 85.88L36.5973 85.48C36.7253 84.248 37.8613 82.888 39.9733 82.888C42.4693 82.888 43.3973 84.296 43.3973 85.88V89.752C43.3973 90.168 43.4453 90.728 43.4933 91H41.5413C41.4933 90.792 41.4613 90.36 41.4613 90.056C41.0613 90.68 40.3093 91.224 39.1413 91.224C37.4613 91.224 36.4373 90.088 36.4373 88.856ZM39.5893 89.64C40.4852 89.64 41.3173 89.208 41.3173 87.816V87.464L39.5413 87.736C38.9973 87.816 38.5653 88.12 38.5653 88.728C38.5653 89.192 38.9013 89.64 39.5893 89.64ZM48.1194 80.776V83.128H49.7034V85.016H48.1194V88.312C48.1194 89 48.4394 89.224 49.0474 89.224C49.3034 89.224 49.5914 89.192 49.7034 89.16V90.92C49.5114 91 49.1274 91.112 48.5034 91.112C46.9674 91.112 46.0074 90.2 46.0074 88.68V85.016H44.5834V83.128H44.9834C45.8154 83.128 46.1994 82.584 46.1994 81.88V80.776H48.1194ZM58.3932 86.232L54.4413 79.656H57.0333L59.5773 84.152L62.1213 79.656H64.6013L60.6013 86.232V91H58.3932V86.232ZM67.8595 89.304C68.8995 89.304 69.8595 88.552 69.8595 87.064C69.8595 85.576 68.8995 84.824 67.8595 84.824C66.8195 84.824 65.8595 85.576 65.8595 87.064C65.8595 88.536 66.8195 89.304 67.8595 89.304ZM67.8595 82.888C70.2115 82.888 71.9875 84.632 71.9875 87.064C71.9875 89.48 70.2115 91.24 67.8595 91.24C65.5075 91.24 63.7315 89.48 63.7315 87.064C63.7315 84.632 65.5075 82.888 67.8595 82.888ZM78.788 91C78.756 90.84 78.724 90.472 78.724 90.152C78.292 90.888 77.38 91.208 76.548 91.208C74.644 91.208 73.556 89.816 73.556 88.104V83.128H75.684V87.672C75.684 88.552 76.132 89.256 77.124 89.256C78.068 89.256 78.612 88.616 78.612 87.704V83.128H80.74V89.576C80.74 90.184 80.788 90.728 80.82 91H78.788ZM82.419 81.656C82.419 80.952 82.931 80.44 83.619 80.44C84.307 80.44 84.803 80.952 84.803 81.656C84.803 81.784 84.771 81.976 84.739 82.072L83.987 85H83.235L82.483 82.072C82.467 81.992 82.419 81.8 82.419 81.656ZM88.6078 91H86.4798V79.416H88.6078V91ZM93.014 91H90.886V79.416H93.014V91ZM109.677 91H107.885L107.741 89.704C107.229 90.472 106.109 91.24 104.397 91.24C101.341 91.24 98.7334 89 98.7334 85.336C98.7334 81.672 101.469 79.416 104.541 79.416C107.517 79.416 109.165 81.16 109.725 82.904L107.613 83.656C107.325 82.648 106.381 81.48 104.541 81.48C102.829 81.48 100.973 82.648 100.973 85.336C100.973 87.896 102.653 89.224 104.557 89.224C106.653 89.224 107.469 87.816 107.597 87.016H104.013V85.096H109.677V91ZM113.297 86.168H116.817C116.785 85.384 116.273 84.616 115.057 84.616C113.953 84.616 113.345 85.448 113.297 86.168ZM117.025 88.216L118.801 88.744C118.401 90.104 117.153 91.24 115.217 91.24C113.057 91.24 111.153 89.688 111.153 87.032C111.153 84.52 113.009 82.888 115.025 82.888C117.457 82.888 118.913 84.44 118.913 86.968C118.913 87.272 118.881 87.592 118.881 87.624H113.249C113.297 88.664 114.177 89.416 115.233 89.416C116.225 89.416 116.769 88.92 117.025 88.216ZM123.213 80.776V83.128H124.797V85.016H123.213V88.312C123.213 89 123.533 89.224 124.141 89.224C124.397 89.224 124.685 89.192 124.797 89.16V90.92C124.605 91 124.221 91.112 123.597 91.112C122.061 91.112 121.101 90.2 121.101 88.68V85.016H119.677V83.128H120.077C120.909 83.128 121.293 82.584 121.293 81.88V80.776H123.213Z" fill="white"/>
<path d="M228.928 42.36L226.944 42.968C226.832 42.344 226.32 41.368 224.88 41.368C223.808 41.368 223.104 42.056 223.104 42.808C223.104 43.432 223.504 43.928 224.336 44.088L225.92 44.392C227.984 44.792 229.088 46.136 229.088 47.736C229.088 49.48 227.632 51.24 224.992 51.24C221.984 51.24 220.656 49.304 220.48 47.688L222.528 47.144C222.624 48.264 223.408 49.272 225.008 49.272C226.192 49.272 226.848 48.68 226.848 47.88C226.848 47.224 226.352 46.712 225.472 46.536L223.888 46.216C222.08 45.848 220.912 44.68 220.912 42.968C220.912 40.952 222.72 39.416 224.864 39.416C227.616 39.416 228.672 41.08 228.928 42.36ZM232.686 54.04H230.558V43.128H232.622V44.088C232.974 43.48 233.854 42.952 235.038 42.952C237.342 42.952 238.67 44.712 238.67 47.048C238.67 49.432 237.182 51.192 234.958 51.192C233.87 51.192 233.07 50.76 232.686 50.232V54.04ZM236.574 47.064C236.574 45.672 235.71 44.856 234.622 44.856C233.534 44.856 232.654 45.672 232.654 47.064C232.654 48.456 233.534 49.288 234.622 49.288C235.71 49.288 236.574 48.472 236.574 47.064ZM243.891 49.304C244.931 49.304 245.891 48.552 245.891 47.064C245.891 45.576 244.931 44.824 243.891 44.824C242.851 44.824 241.891 45.576 241.891 47.064C241.891 48.536 242.851 49.304 243.891 49.304ZM243.891 42.888C246.243 42.888 248.019 44.632 248.019 47.064C248.019 49.48 246.243 51.24 243.891 51.24C241.539 51.24 239.763 49.48 239.763 47.064C239.763 44.632 241.539 42.888 243.891 42.888ZM252.291 40.776V43.128H253.875V45.016H252.291V48.312C252.291 49 252.611 49.224 253.219 49.224C253.475 49.224 253.763 49.192 253.875 49.16V50.92C253.683 51 253.299 51.112 252.675 51.112C251.139 51.112 250.179 50.2 250.179 48.68V45.016H248.755V43.128H249.155C249.987 43.128 250.371 42.584 250.371 41.88V40.776H252.291ZM257.811 51H255.683V43.128H257.811V51ZM255.427 40.552C255.427 39.816 256.019 39.224 256.739 39.224C257.475 39.224 258.051 39.816 258.051 40.552C258.051 41.256 257.475 41.848 256.739 41.848C256.019 41.848 255.427 41.256 255.427 40.552ZM263.737 41.176C263.257 41.176 262.633 41.384 262.633 42.264V43.128H264.409V44.952H262.633V51H260.489V44.952H259.177V43.128H260.489V42.232C260.489 40.456 261.609 39.304 263.353 39.304C263.801 39.304 264.233 39.384 264.409 39.464V41.256C264.297 41.224 264.089 41.176 263.737 41.176ZM268.903 54.104H266.647L268.503 50.008L265.159 43.128H267.543L269.639 47.736L271.575 43.128H273.847L268.903 54.104ZM274.7 41.656C274.7 40.952 275.212 40.44 275.9 40.44C276.588 40.44 277.084 40.952 277.084 41.656C277.084 41.784 277.052 41.976 277.02 42.072L276.268 45H275.516L274.764 42.072C274.748 41.992 274.7 41.8 274.7 41.656ZM278.089 48.808L279.913 48.408C279.961 49.032 280.425 49.608 281.353 49.608C282.057 49.608 282.393 49.24 282.393 48.824C282.393 48.472 282.153 48.184 281.545 48.056L280.505 47.816C278.985 47.48 278.297 46.568 278.297 45.464C278.297 44.056 279.545 42.888 281.241 42.888C283.481 42.888 284.233 44.312 284.329 45.16L282.553 45.56C282.489 45.096 282.153 44.504 281.257 44.504C280.697 44.504 280.249 44.84 280.249 45.288C280.249 45.672 280.537 45.912 280.969 45.992L282.089 46.232C283.641 46.552 284.425 47.496 284.425 48.648C284.425 49.928 283.433 51.24 281.369 51.24C279.001 51.24 278.185 49.704 278.089 48.808ZM223.52 71H221.296V59.656H228.464V61.752H223.504V64.552H227.92V66.584H223.52V71ZM234.374 63.096V65.24C234.134 65.192 233.926 65.176 233.734 65.176C232.646 65.176 231.702 65.704 231.702 67.4V71H229.574V63.128H231.638V64.296C232.118 63.256 233.206 63.064 233.878 63.064C234.054 63.064 234.214 63.08 234.374 63.096ZM237.344 66.168H240.864C240.832 65.384 240.32 64.616 239.104 64.616C238 64.616 237.392 65.448 237.344 66.168ZM241.072 68.216L242.848 68.744C242.448 70.104 241.2 71.24 239.264 71.24C237.104 71.24 235.2 69.688 235.2 67.032C235.2 64.52 237.056 62.888 239.072 62.888C241.504 62.888 242.96 64.44 242.96 66.968C242.96 67.272 242.928 67.592 242.928 67.624H237.296C237.344 68.664 238.224 69.416 239.28 69.416C240.272 69.416 240.816 68.92 241.072 68.216ZM246.188 66.168H249.708C249.676 65.384 249.164 64.616 247.948 64.616C246.844 64.616 246.236 65.448 246.188 66.168ZM249.916 68.216L251.692 68.744C251.292 70.104 250.044 71.24 248.108 71.24C245.948 71.24 244.044 69.688 244.044 67.032C244.044 64.52 245.9 62.888 247.916 62.888C250.348 62.888 251.804 64.44 251.804 66.968C251.804 67.272 251.772 67.592 251.772 67.624H246.14C246.188 68.664 247.068 69.416 248.124 69.416C249.116 69.416 249.66 68.92 249.916 68.216ZM259.817 64.824H261.561C262.665 64.824 263.337 64.184 263.337 63.208C263.337 62.2 262.665 61.576 261.561 61.576H259.817V64.824ZM261.833 66.728H259.801V71H257.593V59.656H261.833C264.073 59.656 265.561 61.144 265.561 63.192C265.561 65.256 264.073 66.728 261.833 66.728ZM269.155 71H267.027V59.416H269.155V71ZM270.906 68.856C270.906 67.448 271.946 66.664 273.258 66.472L275.194 66.184C275.642 66.12 275.786 65.896 275.786 65.624C275.786 65.064 275.354 64.6 274.458 64.6C273.53 64.6 273.018 65.192 272.954 65.88L271.066 65.48C271.194 64.248 272.33 62.888 274.442 62.888C276.938 62.888 277.866 64.296 277.866 65.88V69.752C277.866 70.168 277.914 70.728 277.962 71H276.01C275.962 70.792 275.93 70.36 275.93 70.056C275.53 70.68 274.778 71.224 273.61 71.224C271.93 71.224 270.906 70.088 270.906 68.856ZM274.058 69.64C274.954 69.64 275.786 69.208 275.786 67.816V67.464L274.01 67.736C273.466 67.816 273.034 68.12 273.034 68.728C273.034 69.192 273.37 69.64 274.058 69.64ZM282.139 66.472V71H280.011V63.128H282.075V64.104C282.555 63.288 283.499 62.92 284.347 62.92C286.299 62.92 287.195 64.312 287.195 66.04V71H285.067V66.408C285.067 65.528 284.635 64.84 283.611 64.84C282.683 64.84 282.139 65.56 282.139 66.472Z" fill="black"/>
<path d="M360.928 32.36L358.944 32.968C358.832 32.344 358.32 31.368 356.88 31.368C355.808 31.368 355.104 32.056 355.104 32.808C355.104 33.432 355.504 33.928 356.336 34.088L357.92 34.392C359.984 34.792 361.088 36.136 361.088 37.736C361.088 39.48 359.632 41.24 356.992 41.24C353.984 41.24 352.656 39.304 352.48 37.688L354.528 37.144C354.624 38.264 355.408 39.272 357.008 39.272C358.192 39.272 358.848 38.68 358.848 37.88C358.848 37.224 358.352 36.712 357.472 36.536L355.888 36.216C354.08 35.848 352.912 34.68 352.912 32.968C352.912 30.952 354.72 29.416 356.864 29.416C359.616 29.416 360.672 31.08 360.928 32.36ZM364.686 44.04H362.558V33.128H364.622V34.088C364.974 33.48 365.854 32.952 367.038 32.952C369.342 32.952 370.67 34.712 370.67 37.048C370.67 39.432 369.182 41.192 366.958 41.192C365.87 41.192 365.07 40.76 364.686 40.232V44.04ZM368.574 37.064C368.574 35.672 367.71 34.856 366.622 34.856C365.534 34.856 364.654 35.672 364.654 37.064C364.654 38.456 365.534 39.288 366.622 39.288C367.71 39.288 368.574 38.472 368.574 37.064ZM375.891 39.304C376.931 39.304 377.891 38.552 377.891 37.064C377.891 35.576 376.931 34.824 375.891 34.824C374.851 34.824 373.891 35.576 373.891 37.064C373.891 38.536 374.851 39.304 375.891 39.304ZM375.891 32.888C378.243 32.888 380.019 34.632 380.019 37.064C380.019 39.48 378.243 41.24 375.891 41.24C373.539 41.24 371.763 39.48 371.763 37.064C371.763 34.632 373.539 32.888 375.891 32.888ZM384.291 30.776V33.128H385.875V35.016H384.291V38.312C384.291 39 384.611 39.224 385.219 39.224C385.475 39.224 385.763 39.192 385.875 39.16V40.92C385.683 41 385.299 41.112 384.675 41.112C383.139 41.112 382.179 40.2 382.179 38.68V35.016H380.755V33.128H381.155C381.987 33.128 382.371 32.584 382.371 31.88V30.776H384.291ZM389.811 41H387.683V33.128H389.811V41ZM387.427 30.552C387.427 29.816 388.019 29.224 388.739 29.224C389.475 29.224 390.051 29.816 390.051 30.552C390.051 31.256 389.475 31.848 388.739 31.848C388.019 31.848 387.427 31.256 387.427 30.552ZM395.737 31.176C395.257 31.176 394.633 31.384 394.633 32.264V33.128H396.409V34.952H394.633V41H392.489V34.952H391.177V33.128H392.489V32.232C392.489 30.456 393.609 29.304 395.353 29.304C395.801 29.304 396.233 29.384 396.409 29.464V31.256C396.297 31.224 396.089 31.176 395.737 31.176ZM400.903 44.104H398.647L400.503 40.008L397.159 33.128H399.543L401.639 37.736L403.575 33.128H405.847L400.903 44.104ZM406.7 31.656C406.7 30.952 407.212 30.44 407.9 30.44C408.588 30.44 409.084 30.952 409.084 31.656C409.084 31.784 409.052 31.976 409.02 32.072L408.268 35H407.516L406.764 32.072C406.748 31.992 406.7 31.8 406.7 31.656ZM410.089 38.808L411.913 38.408C411.961 39.032 412.425 39.608 413.353 39.608C414.057 39.608 414.393 39.24 414.393 38.824C414.393 38.472 414.153 38.184 413.545 38.056L412.505 37.816C410.985 37.48 410.297 36.568 410.297 35.464C410.297 34.056 411.545 32.888 413.241 32.888C415.481 32.888 416.233 34.312 416.329 35.16L414.553 35.56C414.489 35.096 414.153 34.504 413.257 34.504C412.697 34.504 412.249 34.84 412.249 35.288C412.249 35.672 412.537 35.912 412.969 35.992L414.089 36.232C415.641 36.552 416.425 37.496 416.425 38.648C416.425 39.928 415.433 41.24 413.369 41.24C411.001 41.24 410.185 39.704 410.089 38.808ZM355.52 54.824H357.264C358.368 54.824 359.04 54.184 359.04 53.208C359.04 52.2 358.368 51.576 357.264 51.576H355.52V54.824ZM357.536 56.728H355.504V61H353.296V49.656H357.536C359.776 49.656 361.264 51.144 361.264 53.192C361.264 55.256 359.776 56.728 357.536 56.728ZM367.452 53.096V55.24C367.212 55.192 367.004 55.176 366.812 55.176C365.724 55.176 364.78 55.704 364.78 57.4V61H362.652V53.128H364.716V54.296C365.196 53.256 366.284 53.064 366.956 53.064C367.132 53.064 367.292 53.08 367.452 53.096ZM370.422 56.168H373.942C373.91 55.384 373.398 54.616 372.182 54.616C371.078 54.616 370.47 55.448 370.422 56.168ZM374.15 58.216L375.926 58.744C375.526 60.104 374.278 61.24 372.342 61.24C370.182 61.24 368.278 59.688 368.278 57.032C368.278 54.52 370.134 52.888 372.15 52.888C374.582 52.888 376.038 54.44 376.038 56.968C376.038 57.272 376.006 57.592 376.006 57.624H370.374C370.422 58.664 371.302 59.416 372.358 59.416C373.35 59.416 373.894 58.92 374.15 58.216ZM379.842 61H377.714V53.128H379.746V54.088C380.178 53.32 381.186 52.904 382.05 52.904C383.122 52.904 383.986 53.368 384.386 54.216C385.01 53.256 385.842 52.904 386.882 52.904C388.338 52.904 389.73 53.784 389.73 55.896V61H387.666V56.328C387.666 55.48 387.25 54.84 386.274 54.84C385.362 54.84 384.818 55.544 384.818 56.392V61H382.706V56.328C382.706 55.48 382.274 54.84 381.314 54.84C380.386 54.84 379.842 55.528 379.842 56.392V61ZM394.014 61H391.886V53.128H394.014V61ZM391.63 50.552C391.63 49.816 392.222 49.224 392.942 49.224C393.678 49.224 394.254 49.816 394.254 50.552C394.254 51.256 393.678 51.848 392.942 51.848C392.222 51.848 391.63 51.256 391.63 50.552ZM401.444 61C401.412 60.84 401.38 60.472 401.38 60.152C400.948 60.888 400.036 61.208 399.204 61.208C397.3 61.208 396.212 59.816 396.212 58.104V53.128H398.34V57.672C398.34 58.552 398.788 59.256 399.78 59.256C400.724 59.256 401.268 58.616 401.268 57.704V53.128H403.396V59.576C403.396 60.184 403.444 60.728 403.476 61H401.444ZM407.795 61H405.667V53.128H407.699V54.088C408.131 53.32 409.139 52.904 410.003 52.904C411.075 52.904 411.939 53.368 412.339 54.216C412.963 53.256 413.795 52.904 414.835 52.904C416.291 52.904 417.683 53.784 417.683 55.896V61H415.619V56.328C415.619 55.48 415.203 54.84 414.227 54.84C413.315 54.84 412.771 55.544 412.771 56.392V61H410.659V56.328C410.659 55.48 410.227 54.84 409.267 54.84C408.339 54.84 407.795 55.528 407.795 56.392V61ZM355.52 74.824H357.264C358.368 74.824 359.04 74.184 359.04 73.208C359.04 72.2 358.368 71.576 357.264 71.576H355.52V74.824ZM357.536 76.728H355.504V81H353.296V69.656H357.536C359.776 69.656 361.264 71.144 361.264 73.192C361.264 75.256 359.776 76.728 357.536 76.728ZM364.858 81H362.73V69.416H364.858V81ZM366.609 78.856C366.609 77.448 367.649 76.664 368.961 76.472L370.897 76.184C371.345 76.12 371.489 75.896 371.489 75.624C371.489 75.064 371.057 74.6 370.161 74.6C369.233 74.6 368.721 75.192 368.657 75.88L366.769 75.48C366.897 74.248 368.033 72.888 370.145 72.888C372.641 72.888 373.569 74.296 373.569 75.88V79.752C373.569 80.168 373.617 80.728 373.665 81H371.713C371.665 80.792 371.633 80.36 371.633 80.056C371.233 80.68 370.481 81.224 369.313 81.224C367.633 81.224 366.609 80.088 366.609 78.856ZM369.761 79.64C370.657 79.64 371.489 79.208 371.489 77.816V77.464L369.713 77.736C369.169 77.816 368.737 78.12 368.737 78.728C368.737 79.192 369.073 79.64 369.761 79.64ZM377.842 76.472V81H375.714V73.128H377.778V74.104C378.258 73.288 379.202 72.92 380.05 72.92C382.002 72.92 382.898 74.312 382.898 76.04V81H380.77V76.408C380.77 75.528 380.338 74.84 379.314 74.84C378.386 74.84 377.842 75.56 377.842 76.472Z" fill="white"/>
<path d="M19.296 149L18.064 145.832H13.04L11.84 149H10.16L14.672 137.656H16.48L20.992 149H19.296ZM15.536 139.288L13.6 144.376H17.504L15.536 139.288ZM23.176 145.128C23.176 146.712 23.992 147.88 25.432 147.88C26.808 147.88 27.656 146.68 27.656 145.096C27.656 143.512 26.824 142.424 25.448 142.424C24.072 142.424 23.176 143.544 23.176 145.128ZM27.672 147.96V147.832C27.304 148.568 26.488 149.208 25.288 149.208C23.032 149.208 21.64 147.416 21.64 145.128C21.64 142.952 23.112 141.096 25.288 141.096C26.648 141.096 27.384 141.768 27.64 142.392V137.416H29.128V147.576C29.128 148.312 29.192 148.872 29.208 149H27.752C27.72 148.824 27.672 148.424 27.672 147.96ZM35.4623 145.064H31.1263V143.752H35.4623V145.064ZM41.3395 142.664H39.4835V149H37.9315V142.664H36.5075V141.304H37.9315V140.008C37.9315 138.296 39.0675 137.368 40.4595 137.368C40.9715 137.368 41.2915 137.48 41.3555 137.528V138.872C41.2755 138.84 41.0835 138.776 40.6995 138.776C40.1715 138.776 39.4835 139.032 39.4835 140.088V141.304H41.3395V142.664ZM47.2239 141.224V142.824C46.9999 142.792 46.7759 142.776 46.5679 142.776C45.3039 142.776 44.4559 143.448 44.4559 145.144V149H42.9519V141.304H44.4239V142.648C44.9839 141.464 45.9439 141.176 46.7279 141.176C46.9359 141.176 47.1439 141.208 47.2239 141.224ZM49.7248 144.36H53.9328C53.9008 143.256 53.1808 142.392 51.8208 142.392C50.5568 142.392 49.7888 143.368 49.7248 144.36ZM54.1568 146.36L55.4528 146.808C55.0208 148.168 53.7888 149.24 51.9968 149.24C49.9328 149.24 48.1248 147.736 48.1248 145.128C48.1248 142.712 49.8688 141.064 51.8048 141.064C54.1728 141.064 55.5008 142.696 55.5008 145.096C55.5008 145.288 55.4848 145.48 55.4688 145.576H49.6768C49.7088 146.952 50.7008 147.912 51.9968 147.912C53.2448 147.912 53.8688 147.224 54.1568 146.36ZM58.3966 144.36H62.6046C62.5726 143.256 61.8526 142.392 60.4926 142.392C59.2286 142.392 58.4606 143.368 58.3966 144.36ZM62.8286 146.36L64.1246 146.808C63.6926 148.168 62.4606 149.24 60.6686 149.24C58.6046 149.24 56.7966 147.736 56.7966 145.128C56.7966 142.712 58.5406 141.064 60.4766 141.064C62.8446 141.064 64.1726 142.696 64.1726 145.096C64.1726 145.288 64.1566 145.48 64.1406 145.576H58.3486C58.3806 146.952 59.3726 147.912 60.6686 147.912C61.9166 147.912 62.5406 147.224 62.8286 146.36ZM71.5805 149H70.0925V141.304H71.5325V142.328C72.0125 141.48 72.9725 141.08 73.8685 141.08C74.8285 141.08 75.7565 141.544 76.1725 142.536C76.7805 141.432 77.7725 141.08 78.7485 141.08C80.0925 141.08 81.4045 141.992 81.4045 144.008V149H79.9165V144.168C79.9165 143.16 79.4205 142.408 78.2845 142.408C77.2285 142.408 76.5085 143.24 76.5085 144.344V149H75.0045V144.168C75.0045 143.176 74.5245 142.408 73.3725 142.408C72.3005 142.408 71.5805 143.208 71.5805 144.36V149ZM88.727 148.072C88.311 148.872 87.351 149.24 86.455 149.24C84.663 149.24 83.575 147.896 83.575 146.152V141.304H85.079V145.928C85.079 146.984 85.559 147.912 86.823 147.912C88.039 147.912 88.647 147.112 88.647 145.944V141.304H90.151V147.576C90.151 148.184 90.199 148.728 90.231 149H88.791C88.759 148.824 88.727 148.392 88.727 148.072ZM91.9975 147L93.3575 146.52C93.4535 147.32 94.0615 147.96 95.1495 147.96C95.9975 147.96 96.4615 147.48 96.4615 146.936C96.4615 146.456 96.1095 146.088 95.4695 145.944L94.1575 145.656C92.9575 145.4 92.2375 144.584 92.2375 143.496C92.2375 142.184 93.4695 141.064 94.9735 141.064C97.0855 141.064 97.7415 142.44 97.9015 143.128L96.5735 143.624C96.5095 143.224 96.1895 142.344 94.9735 142.344C94.2055 142.344 93.6935 142.84 93.6935 143.368C93.6935 143.832 93.9815 144.168 94.5735 144.296L95.8215 144.568C97.2135 144.872 97.9495 145.72 97.9495 146.856C97.9495 147.944 97.0375 149.24 95.1335 149.24C93.0215 149.24 92.1255 147.88 91.9975 147ZM101.44 149H99.9519V141.304H101.44V149ZM99.6159 138.392C99.6159 137.784 100.096 137.304 100.688 137.304C101.296 137.304 101.776 137.784 101.776 138.392C101.776 138.984 101.296 139.464 100.688 139.464C100.096 139.464 99.6159 138.984 99.6159 138.392ZM107.231 142.456C106.015 142.456 104.895 143.352 104.895 145.144C104.895 146.904 105.999 147.848 107.247 147.848C108.687 147.848 109.215 146.872 109.391 146.264L110.719 146.84C110.351 147.944 109.247 149.24 107.247 149.24C105.007 149.24 103.359 147.48 103.359 145.144C103.359 142.744 105.039 141.064 107.231 141.064C109.279 141.064 110.335 142.344 110.655 143.512L109.295 144.088C109.103 143.336 108.543 142.456 107.231 142.456ZM117.987 149H116.483V137.416H117.987V149ZM122.034 149H120.546V141.304H122.034V149ZM120.21 138.392C120.21 137.784 120.69 137.304 121.282 137.304C121.89 137.304 122.37 137.784 122.37 138.392C122.37 138.984 121.89 139.464 121.282 139.464C120.69 139.464 120.21 138.984 120.21 138.392ZM123.873 147L125.233 146.52C125.329 147.32 125.937 147.96 127.025 147.96C127.873 147.96 128.337 147.48 128.337 146.936C128.337 146.456 127.985 146.088 127.345 145.944L126.033 145.656C124.833 145.4 124.113 144.584 124.113 143.496C124.113 142.184 125.345 141.064 126.849 141.064C128.961 141.064 129.617 142.44 129.777 143.128L128.449 143.624C128.385 143.224 128.065 142.344 126.849 142.344C126.081 142.344 125.569 142.84 125.569 143.368C125.569 143.832 125.857 144.168 126.449 144.296L127.697 144.568C129.089 144.872 129.825 145.72 129.825 146.856C129.825 147.944 128.913 149.24 127.009 149.24C124.897 149.24 124.001 147.88 123.873 147ZM133.843 138.872V141.304H135.507V142.664H133.843V146.664C133.843 147.368 134.131 147.72 134.915 147.72C135.107 147.72 135.379 147.688 135.507 147.656V148.936C135.379 148.984 134.995 149.08 134.483 149.08C133.171 149.08 132.339 148.28 132.339 146.888V142.664H130.867V141.304H131.283C132.115 141.304 132.467 140.792 132.467 140.12V138.872H133.843ZM138.412 144.36H142.62C142.588 143.256 141.868 142.392 140.508 142.392C139.244 142.392 138.476 143.368 138.412 144.36ZM142.844 146.36L144.14 146.808C143.708 148.168 142.476 149.24 140.684 149.24C138.62 149.24 136.812 147.736 136.812 145.128C136.812 142.712 138.556 141.064 140.492 141.064C142.86 141.064 144.188 142.696 144.188 145.096C144.188 145.288 144.172 145.48 144.156 145.576H138.364C138.396 146.952 139.388 147.912 140.684 147.912C141.932 147.912 142.556 147.224 142.844 146.36ZM147.612 144.552V149H146.108V141.304H147.58V142.408C148.14 141.448 149.052 141.08 149.948 141.08C151.788 141.08 152.7 142.408 152.7 144.12V149H151.196V144.376C151.196 143.304 150.748 142.44 149.404 142.44C148.22 142.44 147.612 143.384 147.612 144.552ZM156.581 149H155.093V141.304H156.581V149ZM154.757 138.392C154.757 137.784 155.237 137.304 155.829 137.304C156.437 137.304 156.917 137.784 156.917 138.392C156.917 138.984 156.437 139.464 155.829 139.464C155.237 139.464 154.757 138.984 154.757 138.392ZM160.643 144.552V149H159.139V141.304H160.611V142.408C161.171 141.448 162.083 141.08 162.979 141.08C164.819 141.08 165.731 142.408 165.731 144.12V149H164.227V144.376C164.227 143.304 163.779 142.44 162.435 142.44C161.251 142.44 160.643 143.384 160.643 144.552ZM167.564 149.416L169.02 149.08C169.132 150.152 169.948 150.968 171.116 150.968C172.732 150.968 173.468 150.136 173.468 148.472V147.368C173.1 148.072 172.268 148.632 171.116 148.632C169.068 148.632 167.58 147.08 167.58 144.904C167.58 142.824 169.004 141.16 171.116 141.16C172.3 141.16 173.1 141.608 173.484 142.376V141.304H174.972V148.424C174.972 150.376 174.012 152.28 171.116 152.28C169.196 152.28 167.756 151.064 167.564 149.416ZM171.34 147.368C172.636 147.368 173.532 146.392 173.532 144.904C173.532 143.416 172.636 142.44 171.34 142.44C170.012 142.44 169.116 143.416 169.116 144.904C169.116 146.408 169.98 147.368 171.34 147.368Z" fill="white"/>
<path d="M13.008 274.952H15.28C16.64 274.952 17.472 274.2 17.472 273.032C17.472 271.832 16.64 271.064 15.28 271.064H13.008V274.952ZM15.568 276.36H13.008V281H11.44V269.656H15.568C17.664 269.656 19.072 271.112 19.072 273.016C19.072 274.936 17.664 276.36 15.568 276.36ZM22.1746 281H20.6706V269.416H22.1746V281ZM24.2531 278.936C24.2531 277.56 25.2611 276.792 26.5891 276.6L28.6691 276.296C29.1331 276.232 29.2611 275.992 29.2611 275.72C29.2611 274.968 28.7651 274.344 27.5971 274.344C26.5411 274.344 25.9491 275 25.8531 275.896L24.4131 275.56C24.5731 274.088 25.9011 273.064 27.5651 273.064C29.8691 273.064 30.7651 274.376 30.7651 275.88V279.736C30.7651 280.408 30.8291 280.808 30.8611 281H29.3891C29.3571 280.808 29.3091 280.52 29.3091 279.96C28.9731 280.504 28.2051 281.24 26.8291 281.24C25.2611 281.24 24.2531 280.152 24.2531 278.936ZM27.0371 279.976C28.2691 279.976 29.2611 279.384 29.2611 277.704V277.352L26.9091 277.704C26.2691 277.8 25.7891 278.168 25.7891 278.856C25.7891 279.432 26.2691 279.976 27.0371 279.976ZM34.8719 284.216H33.2239L35.1439 280.152L31.8319 273.304H33.5599L35.9599 278.616L38.2639 273.304H39.8799L34.8719 284.216ZM44.6069 279L45.9669 278.52C46.0629 279.32 46.6709 279.96 47.7589 279.96C48.6069 279.96 49.0709 279.48 49.0709 278.936C49.0709 278.456 48.7189 278.088 48.0789 277.944L46.7669 277.656C45.5669 277.4 44.8469 276.584 44.8469 275.496C44.8469 274.184 46.0789 273.064 47.5829 273.064C49.6949 273.064 50.3509 274.44 50.5109 275.128L49.1829 275.624C49.1189 275.224 48.7989 274.344 47.5829 274.344C46.8149 274.344 46.3029 274.84 46.3029 275.368C46.3029 275.832 46.5909 276.168 47.1829 276.296L48.4309 276.568C49.8229 276.872 50.5589 277.72 50.5589 278.856C50.5589 279.944 49.6469 281.24 47.7429 281.24C45.6309 281.24 44.7349 279.88 44.6069 279ZM55.7791 279.896C57.0591 279.896 58.1791 278.936 58.1791 277.144C58.1791 275.368 57.0591 274.408 55.7791 274.408C54.4991 274.408 53.3791 275.368 53.3791 277.144C53.3791 278.936 54.4991 279.896 55.7791 279.896ZM55.7791 273.064C58.0831 273.064 59.7151 274.808 59.7151 277.144C59.7151 279.496 58.0831 281.24 55.7791 281.24C53.4751 281.24 51.8431 279.496 51.8431 277.144C51.8431 274.808 53.4751 273.064 55.7791 273.064ZM63.1434 276.552V281H61.6394V273.304H63.1114V274.408C63.6714 273.448 64.5834 273.08 65.4794 273.08C67.3194 273.08 68.2314 274.408 68.2314 276.12V281H66.7274V276.376C66.7274 275.304 66.2794 274.44 64.9354 274.44C63.7514 274.44 63.1434 275.384 63.1434 276.552ZM70.0638 281.416L71.5198 281.08C71.6318 282.152 72.4478 282.968 73.6158 282.968C75.2318 282.968 75.9678 282.136 75.9678 280.472V279.368C75.5998 280.072 74.7678 280.632 73.6158 280.632C71.5678 280.632 70.0798 279.08 70.0798 276.904C70.0798 274.824 71.5038 273.16 73.6158 273.16C74.7998 273.16 75.5998 273.608 75.9838 274.376V273.304H77.4718V280.424C77.4718 282.376 76.5118 284.28 73.6158 284.28C71.6957 284.28 70.2558 283.064 70.0638 281.416ZM73.8398 279.368C75.1358 279.368 76.0318 278.392 76.0318 276.904C76.0318 275.416 75.1358 274.44 73.8398 274.44C72.5118 274.44 71.6158 275.416 71.6158 276.904C71.6158 278.408 72.4798 279.368 73.8398 279.368ZM79.1538 279L80.5138 278.52C80.6098 279.32 81.2178 279.96 82.3058 279.96C83.1538 279.96 83.6178 279.48 83.6178 278.936C83.6178 278.456 83.2658 278.088 82.6258 277.944L81.3138 277.656C80.1138 277.4 79.3938 276.584 79.3938 275.496C79.3938 274.184 80.6258 273.064 82.1298 273.064C84.2418 273.064 84.8978 274.44 85.0578 275.128L83.7298 275.624C83.6658 275.224 83.3458 274.344 82.1298 274.344C81.3618 274.344 80.8498 274.84 80.8498 275.368C80.8498 275.832 81.1378 276.168 81.7298 276.296L82.9778 276.568C84.3698 276.872 85.1058 277.72 85.1058 278.856C85.1058 279.944 84.1938 281.24 82.2898 281.24C80.1778 281.24 79.2818 279.88 79.1538 279ZM92.5961 281H91.1081V273.304H92.5961V281ZM90.7721 270.392C90.7721 269.784 91.2521 269.304 91.8441 269.304C92.4521 269.304 92.9321 269.784 92.9321 270.392C92.9321 270.984 92.4521 271.464 91.8441 271.464C91.2521 271.464 90.7721 270.984 90.7721 270.392ZM96.659 276.552V281H95.155V273.304H96.627V274.408C97.187 273.448 98.099 273.08 98.995 273.08C100.835 273.08 101.747 274.408 101.747 276.12V281H100.243V276.376C100.243 275.304 99.795 274.44 98.451 274.44C97.267 274.44 96.659 275.384 96.659 276.552ZM107.659 278.936C107.659 277.56 108.667 276.792 109.995 276.6L112.075 276.296C112.539 276.232 112.667 275.992 112.667 275.72C112.667 274.968 112.171 274.344 111.003 274.344C109.947 274.344 109.355 275 109.259 275.896L107.819 275.56C107.979 274.088 109.307 273.064 110.971 273.064C113.275 273.064 114.171 274.376 114.171 275.88V279.736C114.171 280.408 114.235 280.808 114.267 281H112.795C112.763 280.808 112.715 280.52 112.715 279.96C112.379 280.504 111.611 281.24 110.235 281.24C108.667 281.24 107.659 280.152 107.659 278.936ZM110.443 279.976C111.675 279.976 112.667 279.384 112.667 277.704V277.352L110.315 277.704C109.675 277.8 109.195 278.168 109.195 278.856C109.195 279.432 109.675 279.976 110.443 279.976ZM118.018 276.552V281H116.514V273.304H117.986V274.408C118.546 273.448 119.458 273.08 120.354 273.08C122.194 273.08 123.106 274.408 123.106 276.12V281H121.602V276.376C121.602 275.304 121.154 274.44 119.81 274.44C118.626 274.44 118.018 275.384 118.018 276.552ZM127.419 284.216H125.771L127.691 280.152L124.379 273.304H126.107L128.507 278.616L130.811 273.304H132.427L127.419 284.216ZM141.17 279.896C142.45 279.896 143.57 278.936 143.57 277.144C143.57 275.368 142.45 274.408 141.17 274.408C139.89 274.408 138.77 275.368 138.77 277.144C138.77 278.936 139.89 279.896 141.17 279.896ZM141.17 273.064C143.474 273.064 145.106 274.808 145.106 277.144C145.106 279.496 143.474 281.24 141.17 281.24C138.866 281.24 137.234 279.496 137.234 277.144C137.234 274.808 138.866 273.064 141.17 273.064ZM151.302 273.224V274.824C151.078 274.792 150.854 274.776 150.646 274.776C149.382 274.776 148.534 275.448 148.534 277.144V281H147.03V273.304H148.502V274.648C149.062 273.464 150.022 273.176 150.806 273.176C151.014 273.176 151.222 273.208 151.302 273.224ZM153.723 277.128C153.723 278.712 154.539 279.88 155.979 279.88C157.355 279.88 158.203 278.68 158.203 277.096C158.203 275.512 157.371 274.424 155.995 274.424C154.619 274.424 153.723 275.544 153.723 277.128ZM158.219 279.96V279.832C157.851 280.568 157.035 281.208 155.835 281.208C153.579 281.208 152.187 279.416 152.187 277.128C152.187 274.952 153.659 273.096 155.835 273.096C157.195 273.096 157.931 273.768 158.187 274.392V269.416H159.675V279.576C159.675 280.312 159.739 280.872 159.755 281H158.299C158.267 280.824 158.219 280.424 158.219 279.96ZM163.209 276.36H167.417C167.385 275.256 166.665 274.392 165.305 274.392C164.041 274.392 163.273 275.368 163.209 276.36ZM167.641 278.36L168.937 278.808C168.505 280.168 167.273 281.24 165.481 281.24C163.417 281.24 161.609 279.736 161.609 277.128C161.609 274.712 163.353 273.064 165.289 273.064C167.657 273.064 168.985 274.696 168.985 277.096C168.985 277.288 168.969 277.48 168.953 277.576H163.161C163.193 278.952 164.185 279.912 165.481 279.912C166.729 279.912 167.353 279.224 167.641 278.36ZM175.177 273.224V274.824C174.953 274.792 174.729 274.776 174.521 274.776C173.257 274.776 172.409 275.448 172.409 277.144V281H170.905V273.304H172.377V274.648C172.937 273.464 173.897 273.176 174.681 273.176C174.889 273.176 175.097 273.208 175.177 273.224Z" fill="white"/>
<path d="M13.008 202.608H15.328C17.424 202.608 19.184 201.2 19.184 198.352C19.184 195.488 17.456 194.048 15.36 194.048H13.008V202.608ZM15.376 204H11.44V192.656H15.408C18.288 192.656 20.8 194.624 20.8 198.352C20.8 202.064 18.256 204 15.376 204ZM26.0916 202.896C27.3716 202.896 28.4916 201.936 28.4916 200.144C28.4916 198.368 27.3716 197.408 26.0916 197.408C24.8116 197.408 23.6916 198.368 23.6916 200.144C23.6916 201.936 24.8116 202.896 26.0916 202.896ZM26.0916 196.064C28.3956 196.064 30.0276 197.808 30.0276 200.144C30.0276 202.496 28.3956 204.24 26.0916 204.24C23.7876 204.24 22.1556 202.496 22.1556 200.144C22.1556 197.808 23.7876 196.064 26.0916 196.064ZM36.1316 196.304H37.6836L39.6836 202.096L41.3796 196.304H42.9636L40.4676 204H38.9156L36.8676 198.144L34.8676 204H33.2836L30.7556 196.304H32.4036L34.1316 202.096L36.1316 196.304ZM45.9871 199.552V204H44.4831V196.304H45.9551V197.408C46.5151 196.448 47.4271 196.08 48.3231 196.08C50.1631 196.08 51.0751 197.408 51.0751 199.12V204H49.5711V199.376C49.5711 198.304 49.1231 197.44 47.7791 197.44C46.5951 197.44 45.9871 198.384 45.9871 199.552ZM54.9715 204H53.4675V192.416H54.9715V204ZM60.826 202.896C62.106 202.896 63.226 201.936 63.226 200.144C63.226 198.368 62.106 197.408 60.826 197.408C59.546 197.408 58.426 198.368 58.426 200.144C58.426 201.936 59.546 202.896 60.826 202.896ZM60.826 196.064C63.13 196.064 64.762 197.808 64.762 200.144C64.762 202.496 63.13 204.24 60.826 204.24C58.522 204.24 56.89 202.496 56.89 200.144C56.89 197.808 58.522 196.064 60.826 196.064ZM66.2063 201.936C66.2063 200.56 67.2143 199.792 68.5423 199.6L70.6223 199.296C71.0863 199.232 71.2143 198.992 71.2143 198.72C71.2143 197.968 70.7183 197.344 69.5503 197.344C68.4943 197.344 67.9023 198 67.8063 198.896L66.3663 198.56C66.5263 197.088 67.8543 196.064 69.5182 196.064C71.8223 196.064 72.7183 197.376 72.7183 198.88V202.736C72.7183 203.408 72.7823 203.808 72.8143 204H71.3423C71.3103 203.808 71.2623 203.52 71.2623 202.96C70.9263 203.504 70.1583 204.24 68.7823 204.24C67.2143 204.24 66.2063 203.152 66.2063 201.936ZM68.9903 202.976C70.2223 202.976 71.2143 202.384 71.2143 200.704V200.352L68.8623 200.704C68.2223 200.8 67.7423 201.168 67.7423 201.856C67.7423 202.432 68.2223 202.976 68.9903 202.976ZM75.9573 200.128C75.9573 201.712 76.7733 202.88 78.2133 202.88C79.5893 202.88 80.4373 201.68 80.4373 200.096C80.4373 198.512 79.6053 197.424 78.2293 197.424C76.8533 197.424 75.9573 198.544 75.9573 200.128ZM80.4533 202.96V202.832C80.0853 203.568 79.2693 204.208 78.0693 204.208C75.8133 204.208 74.4213 202.416 74.4213 200.128C74.4213 197.952 75.8932 196.096 78.0693 196.096C79.4293 196.096 80.1653 196.768 80.4213 197.392V192.416H81.9093V202.576C81.9093 203.312 81.9733 203.872 81.9893 204H80.5333C80.5013 203.824 80.4533 203.424 80.4533 202.96ZM90.4835 193.872V196.304H92.1475V197.664H90.4835V201.664C90.4835 202.368 90.7715 202.72 91.5555 202.72C91.7475 202.72 92.0195 202.688 92.1475 202.656V203.936C92.0195 203.984 91.6355 204.08 91.1235 204.08C89.8115 204.08 88.9795 203.28 88.9795 201.888V197.664H87.5075V196.304H87.9235C88.7555 196.304 89.1075 195.792 89.1075 195.12V193.872H90.4835ZM97.3729 202.896C98.6529 202.896 99.7729 201.936 99.7729 200.144C99.7729 198.368 98.6529 197.408 97.3729 197.408C96.0929 197.408 94.9729 198.368 94.9729 200.144C94.9729 201.936 96.0929 202.896 97.3729 202.896ZM97.3729 196.064C99.6769 196.064 101.309 197.808 101.309 200.144C101.309 202.496 99.6769 204.24 97.3729 204.24C95.0689 204.24 93.4369 202.496 93.4369 200.144C93.4369 197.808 95.0689 196.064 97.3729 196.064ZM108.737 204H107.233V192.416H108.737V204ZM112.784 204H111.296V196.304H112.784V204ZM110.96 193.392C110.96 192.784 111.44 192.304 112.032 192.304C112.64 192.304 113.12 192.784 113.12 193.392C113.12 193.984 112.64 194.464 112.032 194.464C111.44 194.464 110.96 193.984 110.96 193.392ZM114.623 202L115.983 201.52C116.079 202.32 116.687 202.96 117.775 202.96C118.623 202.96 119.087 202.48 119.087 201.936C119.087 201.456 118.735 201.088 118.095 200.944L116.783 200.656C115.583 200.4 114.863 199.584 114.863 198.496C114.863 197.184 116.095 196.064 117.599 196.064C119.711 196.064 120.367 197.44 120.527 198.128L119.199 198.624C119.135 198.224 118.815 197.344 117.599 197.344C116.831 197.344 116.319 197.84 116.319 198.368C116.319 198.832 116.607 199.168 117.199 199.296L118.447 199.568C119.839 199.872 120.575 200.72 120.575 201.856C120.575 202.944 119.663 204.24 117.759 204.24C115.647 204.24 114.751 202.88 114.623 202ZM124.593 193.872V196.304H126.257V197.664H124.593V201.664C124.593 202.368 124.881 202.72 125.665 202.72C125.857 202.72 126.129 202.688 126.257 202.656V203.936C126.129 203.984 125.745 204.08 125.233 204.08C123.921 204.08 123.089 203.28 123.089 201.888V197.664H121.617V196.304H122.033C122.865 196.304 123.217 195.792 123.217 195.12V193.872H124.593ZM129.162 199.36H133.37C133.338 198.256 132.618 197.392 131.258 197.392C129.994 197.392 129.226 198.368 129.162 199.36ZM133.594 201.36L134.89 201.808C134.458 203.168 133.226 204.24 131.434 204.24C129.37 204.24 127.562 202.736 127.562 200.128C127.562 197.712 129.306 196.064 131.242 196.064C133.61 196.064 134.938 197.696 134.938 200.096C134.938 200.288 134.922 200.48 134.906 200.576H129.114C129.146 201.952 130.138 202.912 131.434 202.912C132.682 202.912 133.306 202.224 133.594 201.36ZM138.362 199.552V204H136.858V196.304H138.33V197.408C138.89 196.448 139.802 196.08 140.698 196.08C142.538 196.08 143.45 197.408 143.45 199.12V204H141.946V199.376C141.946 198.304 141.498 197.44 140.154 197.44C138.97 197.44 138.362 198.384 138.362 199.552ZM14.576 222.896C15.856 222.896 16.976 221.936 16.976 220.144C16.976 218.368 15.856 217.408 14.576 217.408C13.296 217.408 12.176 218.368 12.176 220.144C12.176 221.936 13.296 222.896 14.576 222.896ZM14.576 216.064C16.88 216.064 18.512 217.808 18.512 220.144C18.512 222.496 16.88 224.24 14.576 224.24C12.272 224.24 10.64 222.496 10.64 220.144C10.64 217.808 12.272 216.064 14.576 216.064ZM20.9003 216.304V215.008C20.9003 213.296 22.0363 212.368 23.4283 212.368C23.9403 212.368 24.2603 212.48 24.3243 212.528V213.872C24.2443 213.84 24.0523 213.776 23.6683 213.776C23.1403 213.776 22.4523 214.032 22.4523 215.088V216.304H25.9563V215.008C25.9563 213.296 27.0923 212.368 28.4843 212.368C28.9963 212.368 29.3163 212.48 29.3803 212.528V213.872C29.3003 213.84 29.1083 213.776 28.7243 213.776C28.1962 213.776 27.5083 214.032 27.5083 215.088V216.304H31.1083V212.416H32.5963V224H31.1083V217.664H27.5083V224H25.9563V217.664H22.4523V224H20.9003V217.664H19.4763V216.304H20.9003ZM36.643 224H35.155V216.304H36.643V224ZM34.819 213.392C34.819 212.784 35.299 212.304 35.891 212.304C36.499 212.304 36.979 212.784 36.979 213.392C36.979 213.984 36.499 214.464 35.891 214.464C35.299 214.464 34.819 213.984 34.819 213.392ZM40.7059 219.552V224H39.2019V216.304H40.6739V217.408C41.2339 216.448 42.1459 216.08 43.0419 216.08C44.8819 216.08 45.7939 217.408 45.7939 219.12V224H44.2899V219.376C44.2899 218.304 43.8419 217.44 42.4979 217.44C41.3139 217.44 40.7059 218.384 40.7059 219.552ZM49.1623 219.36H53.3703C53.3383 218.256 52.6183 217.392 51.2583 217.392C49.9943 217.392 49.2263 218.368 49.1623 219.36ZM53.5943 221.36L54.8903 221.808C54.4583 223.168 53.2263 224.24 51.4343 224.24C49.3703 224.24 47.5623 222.736 47.5623 220.128C47.5623 217.712 49.3063 216.064 51.2423 216.064C53.6103 216.064 54.9383 217.696 54.9383 220.096C54.9383 220.288 54.9223 220.48 54.9062 220.576H49.1143C49.1463 221.952 50.1383 222.912 51.4343 222.912C52.6823 222.912 53.3063 222.224 53.5943 221.36Z" fill="white"/>
<path d="M20.368 340H18.8V334.96H13.008V340H11.44V328.656H13.008V333.504H18.8V328.656H20.368V340ZM24.5805 340H23.0925V332.304H24.5805V340ZM22.7565 329.392C22.7565 328.784 23.2365 328.304 23.8285 328.304C24.4365 328.304 24.9165 328.784 24.9165 329.392C24.9165 329.984 24.4365 330.464 23.8285 330.464C23.2365 330.464 22.7565 329.984 22.7565 329.392ZM26.5794 340.416L28.0354 340.08C28.1474 341.152 28.9634 341.968 30.1314 341.968C31.7474 341.968 32.4834 341.136 32.4834 339.472V338.368C32.1154 339.072 31.2834 339.632 30.1314 339.632C28.0834 339.632 26.5954 338.08 26.5954 335.904C26.5954 333.824 28.0194 332.16 30.1314 332.16C31.3154 332.16 32.1154 332.608 32.4994 333.376V332.304H33.9874V339.424C33.9874 341.376 33.0274 343.28 30.1314 343.28C28.2114 343.28 26.7714 342.064 26.5794 340.416ZM30.3554 338.368C31.6514 338.368 32.5474 337.392 32.5474 335.904C32.5474 334.416 31.6514 333.44 30.3554 333.44C29.0274 333.44 28.1314 334.416 28.1314 335.904C28.1314 337.408 28.9954 338.368 30.3554 338.368ZM37.8934 335.472V340H36.3894V328.416H37.8934V333.2C38.4534 332.384 39.3494 332.08 40.2294 332.08C42.0694 332.08 42.9814 333.408 42.9814 335.12V340H41.4774V335.376C41.4774 334.304 41.0294 333.44 39.6854 333.44C38.5334 333.44 37.9254 334.336 37.8934 335.472ZM48.8938 337.936C48.8938 336.56 49.9018 335.792 51.2298 335.6L53.3098 335.296C53.7738 335.232 53.9018 334.992 53.9018 334.72C53.9018 333.968 53.4058 333.344 52.2378 333.344C51.1818 333.344 50.5898 334 50.4938 334.896L49.0538 334.56C49.2138 333.088 50.5418 332.064 52.2057 332.064C54.5098 332.064 55.4058 333.376 55.4058 334.88V338.736C55.4058 339.408 55.4698 339.808 55.5018 340H54.0298C53.9978 339.808 53.9498 339.52 53.9498 338.96C53.6138 339.504 52.8458 340.24 51.4698 340.24C49.9018 340.24 48.8938 339.152 48.8938 337.936ZM51.6778 338.976C52.9098 338.976 53.9018 338.384 53.9018 336.704V336.352L51.5498 336.704C50.9098 336.8 50.4298 337.168 50.4298 337.856C50.4298 338.432 50.9098 338.976 51.6778 338.976ZM62.6645 339.072C62.2485 339.872 61.2885 340.24 60.3925 340.24C58.6005 340.24 57.5125 338.896 57.5125 337.152V332.304H59.0165V336.928C59.0165 337.984 59.4965 338.912 60.7605 338.912C61.9765 338.912 62.5845 338.112 62.5845 336.944V332.304H64.0885V338.576C64.0885 339.184 64.1365 339.728 64.1685 340H62.7285C62.6965 339.824 62.6645 339.392 62.6645 339.072ZM67.4729 336.128C67.4729 337.712 68.2889 338.88 69.7289 338.88C71.1049 338.88 71.9529 337.68 71.9529 336.096C71.9529 334.512 71.1209 333.424 69.7449 333.424C68.3689 333.424 67.4729 334.544 67.4729 336.128ZM71.9689 338.96V338.832C71.6009 339.568 70.7849 340.208 69.5849 340.208C67.3289 340.208 65.9369 338.416 65.9369 336.128C65.9369 333.952 67.4089 332.096 69.5849 332.096C70.9449 332.096 71.6809 332.768 71.9369 333.392V328.416H73.4249V338.576C73.4249 339.312 73.4889 339.872 73.5049 340H72.0489C72.0169 339.824 71.9689 339.424 71.9689 338.96ZM77.4711 340H75.9831V332.304H77.4711V340ZM75.6471 329.392C75.6471 328.784 76.1271 328.304 76.7191 328.304C77.3271 328.304 77.8071 328.784 77.8071 329.392C77.8071 329.984 77.3271 330.464 76.7191 330.464C76.1271 330.464 75.6471 329.984 75.6471 329.392ZM83.326 338.896C84.606 338.896 85.726 337.936 85.726 336.144C85.726 334.368 84.606 333.408 83.326 333.408C82.046 333.408 80.926 334.368 80.926 336.144C80.926 337.936 82.046 338.896 83.326 338.896ZM83.326 332.064C85.63 332.064 87.262 333.808 87.262 336.144C87.262 338.496 85.63 340.24 83.326 340.24C81.022 340.24 79.39 338.496 79.39 336.144C79.39 333.808 81.022 332.064 83.326 332.064ZM100.082 343.04H98.5943V338.912C98.1943 339.696 97.3303 340.208 96.1943 340.208C93.9863 340.208 92.5463 338.368 92.5463 336.128C92.5463 333.952 93.9062 332.112 96.1623 332.112C97.4903 332.112 98.3063 332.8 98.6263 333.488V332.304H100.082V343.04ZM94.0823 336.128C94.0823 337.712 94.9623 338.88 96.3383 338.88C97.6983 338.88 98.6103 337.712 98.6103 336.128C98.6103 334.544 97.6983 333.44 96.3383 333.44C94.9463 333.44 94.0823 334.544 94.0823 336.128ZM107.555 339.072C107.139 339.872 106.179 340.24 105.283 340.24C103.491 340.24 102.403 338.896 102.403 337.152V332.304H103.907V336.928C103.907 337.984 104.387 338.912 105.651 338.912C106.867 338.912 107.475 338.112 107.475 336.944V332.304H108.979V338.576C108.979 339.184 109.027 339.728 109.059 340H107.619C107.587 339.824 107.555 339.392 107.555 339.072ZM111.066 337.936C111.066 336.56 112.074 335.792 113.402 335.6L115.482 335.296C115.946 335.232 116.074 334.992 116.074 334.72C116.074 333.968 115.578 333.344 114.41 333.344C113.354 333.344 112.762 334 112.666 334.896L111.226 334.56C111.386 333.088 112.714 332.064 114.378 332.064C116.682 332.064 117.578 333.376 117.578 334.88V338.736C117.578 339.408 117.642 339.808 117.674 340H116.202C116.17 339.808 116.122 339.52 116.122 338.96C115.786 339.504 115.018 340.24 113.642 340.24C112.074 340.24 111.066 339.152 111.066 337.936ZM113.85 338.976C115.082 338.976 116.074 338.384 116.074 336.704V336.352L113.722 336.704C113.082 336.8 112.602 337.168 112.602 337.856C112.602 338.432 113.082 338.976 113.85 338.976ZM121.425 340H119.921V328.416H121.425V340ZM125.471 340H123.983V332.304H125.471V340ZM123.647 329.392C123.647 328.784 124.127 328.304 124.719 328.304C125.327 328.304 125.807 328.784 125.807 329.392C125.807 329.984 125.327 330.464 124.719 330.464C124.127 330.464 123.647 329.984 123.647 329.392ZM130.046 329.872V332.304H131.71V333.664H130.046V337.664C130.046 338.368 130.334 338.72 131.118 338.72C131.31 338.72 131.582 338.688 131.71 338.656V339.936C131.582 339.984 131.198 340.08 130.686 340.08C129.374 340.08 128.542 339.28 128.542 337.888V333.664H127.07V332.304H127.486C128.318 332.304 128.67 331.792 128.67 331.12V329.872H130.046ZM135.716 343.216H134.068L135.988 339.152L132.676 332.304H134.404L136.804 337.616L139.108 332.304H140.724L135.716 343.216Z" fill="white"/>
<path d="M18.368 400H11.44V388.656H13.008V398.528H18.368V400ZM21.5336 400H20.0456V392.304H21.5336V400ZM19.7096 389.392C19.7096 388.784 20.1896 388.304 20.7816 388.304C21.3896 388.304 21.8696 388.784 21.8696 389.392C21.8696 389.984 21.3896 390.464 20.7816 390.464C20.1896 390.464 19.7096 389.984 19.7096 389.392ZM23.3725 398L24.7325 397.52C24.8285 398.32 25.4365 398.96 26.5245 398.96C27.3725 398.96 27.8365 398.48 27.8365 397.936C27.8365 397.456 27.4845 397.088 26.8445 396.944L25.5325 396.656C24.3325 396.4 23.6125 395.584 23.6125 394.496C23.6125 393.184 24.8445 392.064 26.3485 392.064C28.4605 392.064 29.1165 393.44 29.2765 394.128L27.9485 394.624C27.8845 394.224 27.5645 393.344 26.3485 393.344C25.5805 393.344 25.0685 393.84 25.0685 394.368C25.0685 394.832 25.3565 395.168 25.9485 395.296L27.1965 395.568C28.5885 395.872 29.3245 396.72 29.3245 397.856C29.3245 398.944 28.4125 400.24 26.5085 400.24C24.3965 400.24 23.5005 398.88 23.3725 398ZM33.3429 389.872V392.304H35.0069V393.664H33.3429V397.664C33.3429 398.368 33.6309 398.72 34.4149 398.72C34.6069 398.72 34.8789 398.688 35.0069 398.656V399.936C34.8789 399.984 34.4949 400.08 33.9829 400.08C32.6709 400.08 31.8389 399.28 31.8389 397.888V393.664H30.3669V392.304H30.7829C31.6149 392.304 31.9669 391.792 31.9669 391.12V389.872H33.3429ZM37.9123 395.36H42.1203C42.0883 394.256 41.3683 393.392 40.0083 393.392C38.7443 393.392 37.9763 394.368 37.9123 395.36ZM42.3443 397.36L43.6403 397.808C43.2083 399.168 41.9763 400.24 40.1843 400.24C38.1203 400.24 36.3123 398.736 36.3123 396.128C36.3123 393.712 38.0563 392.064 39.9923 392.064C42.3603 392.064 43.6883 393.696 43.6883 396.096C43.6883 396.288 43.6723 396.48 43.6562 396.576H37.8643C37.8963 397.952 38.8883 398.912 40.1843 398.912C41.4323 398.912 42.0563 398.224 42.3443 397.36ZM47.1121 395.552V400H45.6081V392.304H47.0801V393.408C47.6401 392.448 48.5521 392.08 49.4481 392.08C51.2881 392.08 52.2001 393.408 52.2001 395.12V400H50.6961V395.376C50.6961 394.304 50.2481 393.44 48.9041 393.44C47.7201 393.44 47.1121 394.384 47.1121 395.552ZM62.9285 392.304H64.4805L66.4805 398.096L68.1765 392.304H69.7605L67.2645 400H65.7125L63.6645 394.144L61.6645 400H60.0805L57.5525 392.304H59.2005L60.9285 398.096L62.9285 392.304ZM72.768 400H71.28V392.304H72.768V400ZM70.944 389.392C70.944 388.784 71.424 388.304 72.016 388.304C72.624 388.304 73.104 388.784 73.104 389.392C73.104 389.984 72.624 390.464 72.016 390.464C71.424 390.464 70.944 389.984 70.944 389.392ZM77.3429 389.872V392.304H79.0069V393.664H77.3429V397.664C77.3429 398.368 77.6309 398.72 78.4149 398.72C78.6069 398.72 78.8789 398.688 79.0069 398.656V399.936C78.8789 399.984 78.4949 400.08 77.9829 400.08C76.6709 400.08 75.8389 399.28 75.8389 397.888V393.664H74.3669V392.304H74.7829C75.6149 392.304 75.9669 391.792 75.9669 391.12V389.872H77.3429ZM82.5184 395.472V400H81.0144V388.416H82.5184V393.2C83.0784 392.384 83.9744 392.08 84.8544 392.08C86.6944 392.08 87.6064 393.408 87.6064 395.12V400H86.1024V395.376C86.1024 394.304 85.6544 393.44 84.3104 393.44C83.1584 393.44 82.5504 394.336 82.5184 395.472ZM97.8708 393.664H96.0148V400H94.4628V393.664H93.0388V392.304H94.4628V391.008C94.4628 389.296 95.5988 388.368 96.9908 388.368C97.5028 388.368 97.8228 388.48 97.8868 388.528V389.872C97.8068 389.84 97.6148 389.776 97.2308 389.776C96.7028 389.776 96.0148 390.032 96.0148 391.088V392.304H97.8708V393.664ZM103.755 392.224V393.824C103.531 393.792 103.307 393.776 103.099 393.776C101.835 393.776 100.987 394.448 100.987 396.144V400H99.4831V392.304H100.955V393.648C101.515 392.464 102.475 392.176 103.259 392.176C103.467 392.176 103.675 392.208 103.755 392.224ZM106.846 400H105.358V392.304H106.846V400ZM105.022 389.392C105.022 388.784 105.502 388.304 106.094 388.304C106.702 388.304 107.182 388.784 107.182 389.392C107.182 389.984 106.702 390.464 106.094 390.464C105.502 390.464 105.022 389.984 105.022 389.392ZM110.381 395.36H114.589C114.557 394.256 113.837 393.392 112.477 393.392C111.213 393.392 110.445 394.368 110.381 395.36ZM114.813 397.36L116.109 397.808C115.677 399.168 114.445 400.24 112.653 400.24C110.589 400.24 108.781 398.736 108.781 396.128C108.781 393.712 110.525 392.064 112.461 392.064C114.829 392.064 116.157 393.696 116.157 396.096C116.157 396.288 116.141 396.48 116.125 396.576H110.333C110.365 397.952 111.357 398.912 112.653 398.912C113.901 398.912 114.525 398.224 114.813 397.36ZM119.581 395.552V400H118.077V392.304H119.549V393.408C120.109 392.448 121.021 392.08 121.917 392.08C123.757 392.08 124.669 393.408 124.669 395.12V400H123.165V395.376C123.165 394.304 122.717 393.44 121.373 393.44C120.189 393.44 119.581 394.384 119.581 395.552ZM127.957 396.128C127.957 397.712 128.773 398.88 130.213 398.88C131.589 398.88 132.437 397.68 132.437 396.096C132.437 394.512 131.605 393.424 130.229 393.424C128.853 393.424 127.957 394.544 127.957 396.128ZM132.453 398.96V398.832C132.085 399.568 131.269 400.208 130.069 400.208C127.813 400.208 126.421 398.416 126.421 396.128C126.421 393.952 127.893 392.096 130.069 392.096C131.429 392.096 132.165 392.768 132.421 393.392V388.416H133.909V398.576C133.909 399.312 133.973 399.872 133.989 400H132.533C132.501 399.824 132.453 399.424 132.453 398.96ZM135.748 398L137.108 397.52C137.204 398.32 137.812 398.96 138.9 398.96C139.748 398.96 140.212 398.48 140.212 397.936C140.212 397.456 139.86 397.088 139.22 396.944L137.908 396.656C136.708 396.4 135.988 395.584 135.988 394.496C135.988 393.184 137.22 392.064 138.724 392.064C140.836 392.064 141.492 393.44 141.652 394.128L140.324 394.624C140.26 394.224 139.94 393.344 138.724 393.344C137.956 393.344 137.444 393.84 137.444 394.368C137.444 394.832 137.732 395.168 138.324 395.296L139.572 395.568C140.964 395.872 141.7 396.72 141.7 397.856C141.7 398.944 140.788 400.24 138.884 400.24C136.772 400.24 135.876 398.88 135.748 398ZM149.19 400H147.702V392.304H149.19V400ZM147.366 389.392C147.366 388.784 147.846 388.304 148.438 388.304C149.046 388.304 149.526 388.784 149.526 389.392C149.526 389.984 149.046 390.464 148.438 390.464C147.846 390.464 147.366 389.984 147.366 389.392ZM153.253 395.552V400H151.749V392.304H153.221V393.408C153.781 392.448 154.693 392.08 155.589 392.08C157.429 392.08 158.341 393.408 158.341 395.12V400H156.837V395.376C156.837 394.304 156.389 393.44 155.045 393.44C153.861 393.44 153.253 394.384 153.253 395.552ZM15.552 412.224V413.824C15.328 413.792 15.104 413.776 14.896 413.776C13.632 413.776 12.784 414.448 12.784 416.144V420H11.28V412.304H12.752V413.648C13.312 412.464 14.272 412.176 15.056 412.176C15.264 412.176 15.472 412.208 15.552 412.224ZM18.0529 415.36H22.2609C22.2289 414.256 21.5089 413.392 20.1489 413.392C18.8849 413.392 18.1169 414.368 18.0529 415.36ZM22.4849 417.36L23.7809 417.808C23.3489 419.168 22.1169 420.24 20.3249 420.24C18.2609 420.24 16.4529 418.736 16.4529 416.128C16.4529 413.712 18.1969 412.064 20.1329 412.064C22.5009 412.064 23.8289 413.696 23.8289 416.096C23.8289 416.288 23.8129 416.48 23.7969 416.576H18.0049C18.0369 417.952 19.0289 418.912 20.3249 418.912C21.5729 418.912 22.1969 418.224 22.4849 417.36ZM25.2688 417.936C25.2688 416.56 26.2768 415.792 27.6048 415.6L29.6848 415.296C30.1488 415.232 30.2768 414.992 30.2768 414.72C30.2768 413.968 29.7808 413.344 28.6128 413.344C27.5568 413.344 26.9648 414 26.8688 414.896L25.4288 414.56C25.5888 413.088 26.9168 412.064 28.5807 412.064C30.8848 412.064 31.7808 413.376 31.7808 414.88V418.736C31.7808 419.408 31.8448 419.808 31.8768 420H30.4048C30.3728 419.808 30.3248 419.52 30.3248 418.96C29.9888 419.504 29.2208 420.24 27.8448 420.24C26.2768 420.24 25.2688 419.152 25.2688 417.936ZM28.0528 418.976C29.2848 418.976 30.2768 418.384 30.2768 416.704V416.352L27.9248 416.704C27.2848 416.8 26.8048 417.168 26.8048 417.856C26.8048 418.432 27.2848 418.976 28.0528 418.976ZM35.6278 420H34.1238V408.416H35.6278V420ZM44.2023 409.872V412.304H45.8663V413.664H44.2023V417.664C44.2023 418.368 44.4903 418.72 45.2743 418.72C45.4663 418.72 45.7383 418.688 45.8663 418.656V419.936C45.7383 419.984 45.3543 420.08 44.8423 420.08C43.5303 420.08 42.6983 419.28 42.6983 417.888V413.664H41.2263V412.304H41.6423C42.4743 412.304 42.8263 411.792 42.8263 411.12V409.872H44.2023ZM49.3618 420H47.8738V412.304H49.3618V420ZM47.5378 409.392C47.5378 408.784 48.0178 408.304 48.6098 408.304C49.2178 408.304 49.6978 408.784 49.6978 409.392C49.6978 409.984 49.2178 410.464 48.6098 410.464C48.0178 410.464 47.5378 409.984 47.5378 409.392ZM53.4086 420H51.9206V412.304H53.3606V413.328C53.8406 412.48 54.8006 412.08 55.6966 412.08C56.6566 412.08 57.5846 412.544 58.0006 413.536C58.6086 412.432 59.6006 412.08 60.5766 412.08C61.9206 412.08 63.2326 412.992 63.2326 415.008V420H61.7446V415.168C61.7446 414.16 61.2486 413.408 60.1126 413.408C59.0566 413.408 58.3366 414.24 58.3366 415.344V420H56.8326V415.168C56.8326 414.176 56.3526 413.408 55.2006 413.408C54.1286 413.408 53.4086 414.208 53.4086 415.36V420ZM66.6154 415.36H70.8234C70.7914 414.256 70.0714 413.392 68.7114 413.392C67.4474 413.392 66.6794 414.368 66.6154 415.36ZM71.0474 417.36L72.3434 417.808C71.9114 419.168 70.6794 420.24 68.8874 420.24C66.8234 420.24 65.0154 418.736 65.0154 416.128C65.0154 413.712 66.7594 412.064 68.6954 412.064C71.0634 412.064 72.3914 413.696 72.3914 416.096C72.3914 416.288 72.3754 416.48 72.3594 416.576H66.5674C66.5994 417.952 67.5914 418.912 68.8874 418.912C70.1354 418.912 70.7594 418.224 71.0474 417.36Z" fill="white"/>
<path d="M12.32 470.32C12.32 473.28 14.304 474.8 16.416 474.8C18.528 474.8 20.512 473.28 20.512 470.32C20.512 467.36 18.528 465.856 16.416 465.856C14.304 465.856 12.32 467.36 12.32 470.32ZM10.72 470.32C10.72 466.528 13.568 464.416 16.416 464.416C19.264 464.416 22.112 466.528 22.112 470.32C22.112 474.112 19.264 476.24 16.416 476.24C13.568 476.24 10.72 474.112 10.72 470.32ZM28.3801 468.224V469.824C28.1561 469.792 27.9321 469.776 27.7241 469.776C26.4601 469.776 25.6121 470.448 25.6121 472.144V476H24.1081V468.304H25.5801V469.648C26.1401 468.464 27.1001 468.176 27.8841 468.176C28.0921 468.176 28.3001 468.208 28.3801 468.224ZM29.345 476.416L30.801 476.08C30.913 477.152 31.729 477.968 32.897 477.968C34.513 477.968 35.249 477.136 35.249 475.472V474.368C34.881 475.072 34.049 475.632 32.897 475.632C30.849 475.632 29.361 474.08 29.361 471.904C29.361 469.824 30.785 468.16 32.897 468.16C34.081 468.16 34.881 468.608 35.265 469.376V468.304H36.753V475.424C36.753 477.376 35.793 479.28 32.897 479.28C30.977 479.28 29.537 478.064 29.345 476.416ZM33.121 474.368C34.417 474.368 35.313 473.392 35.313 471.904C35.313 470.416 34.417 469.44 33.121 469.44C31.793 469.44 30.897 470.416 30.897 471.904C30.897 473.408 31.761 474.368 33.121 474.368ZM38.5969 473.936C38.5969 472.56 39.6049 471.792 40.9329 471.6L43.0129 471.296C43.4769 471.232 43.6049 470.992 43.6049 470.72C43.6049 469.968 43.1089 469.344 41.9409 469.344C40.8849 469.344 40.2929 470 40.1969 470.896L38.7569 470.56C38.9169 469.088 40.2449 468.064 41.9089 468.064C44.2129 468.064 45.1089 469.376 45.1089 470.88V474.736C45.1089 475.408 45.1729 475.808 45.2049 476H43.7329C43.7009 475.808 43.6529 475.52 43.6529 474.96C43.3169 475.504 42.5489 476.24 41.1729 476.24C39.6049 476.24 38.5969 475.152 38.5969 473.936ZM41.3809 474.976C42.6129 474.976 43.6049 474.384 43.6049 472.704V472.352L41.2529 472.704C40.6129 472.8 40.1329 473.168 40.1329 473.856C40.1329 474.432 40.6129 474.976 41.3809 474.976ZM48.9559 471.552V476H47.4519V468.304H48.9239V469.408C49.4839 468.448 50.3959 468.08 51.2919 468.08C53.1319 468.08 54.0439 469.408 54.0439 471.12V476H52.5399V471.376C52.5399 470.304 52.0919 469.44 50.7479 469.44C49.5639 469.44 48.9559 470.384 48.9559 471.552ZM57.9243 476H56.4363V468.304H57.9243V476ZM56.1003 465.392C56.1003 464.784 56.5803 464.304 57.1723 464.304C57.7803 464.304 58.2603 464.784 58.2603 465.392C58.2603 465.984 57.7803 466.464 57.1723 466.464C56.5803 466.464 56.1003 465.984 56.1003 465.392ZM66.0191 476H59.8431V474.688L64.0671 469.664H59.9071V468.304H65.9391V469.616L61.7151 474.64H66.0191V476ZM68.9123 471.36H73.1203C73.0883 470.256 72.3683 469.392 71.0083 469.392C69.7443 469.392 68.9763 470.368 68.9123 471.36ZM73.3443 473.36L74.6403 473.808C74.2083 475.168 72.9763 476.24 71.1843 476.24C69.1203 476.24 67.3123 474.736 67.3123 472.128C67.3123 469.712 69.0563 468.064 70.9923 468.064C73.3603 468.064 74.6883 469.696 74.6883 472.096C74.6883 472.288 74.6723 472.48 74.6562 472.576H68.8643C68.8963 473.952 69.8883 474.912 71.1843 474.912C72.4323 474.912 73.0563 474.224 73.3443 473.36ZM82.1121 476H80.6081V464.416H82.1121V476ZM86.1586 476H84.6706V468.304H86.1586V476ZM84.3346 465.392C84.3346 464.784 84.8146 464.304 85.4066 464.304C86.0146 464.304 86.4946 464.784 86.4946 465.392C86.4946 465.984 86.0146 466.464 85.4066 466.464C84.8146 466.464 84.3346 465.984 84.3346 465.392ZM87.9975 474L89.3575 473.52C89.4535 474.32 90.0615 474.96 91.1495 474.96C91.9975 474.96 92.4615 474.48 92.4615 473.936C92.4615 473.456 92.1095 473.088 91.4695 472.944L90.1575 472.656C88.9575 472.4 88.2375 471.584 88.2375 470.496C88.2375 469.184 89.4695 468.064 90.9735 468.064C93.0855 468.064 93.7415 469.44 93.9015 470.128L92.5735 470.624C92.5095 470.224 92.1895 469.344 90.9735 469.344C90.2055 469.344 89.6935 469.84 89.6935 470.368C89.6935 470.832 89.9815 471.168 90.5735 471.296L91.8215 471.568C93.2135 471.872 93.9495 472.72 93.9495 473.856C93.9495 474.944 93.0375 476.24 91.1335 476.24C89.0215 476.24 88.1255 474.88 87.9975 474ZM97.9679 465.872V468.304H99.6319V469.664H97.9679V473.664C97.9679 474.368 98.2559 474.72 99.0399 474.72C99.2319 474.72 99.5039 474.688 99.6319 474.656V475.936C99.5039 475.984 99.1199 476.08 98.6079 476.08C97.2959 476.08 96.4639 475.28 96.4639 473.888V469.664H94.9919V468.304H95.4079C96.2399 468.304 96.5919 467.792 96.5919 467.12V465.872H97.9679ZM102.537 471.36H106.745C106.713 470.256 105.993 469.392 104.633 469.392C103.369 469.392 102.601 470.368 102.537 471.36ZM106.969 473.36L108.265 473.808C107.833 475.168 106.601 476.24 104.809 476.24C102.745 476.24 100.937 474.736 100.937 472.128C100.937 469.712 102.681 468.064 104.617 468.064C106.985 468.064 108.313 469.696 108.313 472.096C108.313 472.288 108.297 472.48 108.281 472.576H102.489C102.521 473.952 103.513 474.912 104.809 474.912C106.057 474.912 106.681 474.224 106.969 473.36ZM111.737 471.552V476H110.233V468.304H111.705V469.408C112.265 468.448 113.177 468.08 114.073 468.08C115.913 468.08 116.825 469.408 116.825 471.12V476H115.321V471.376C115.321 470.304 114.873 469.44 113.529 469.44C112.345 469.44 111.737 470.384 111.737 471.552ZM120.706 476H119.218V468.304H120.706V476ZM118.882 465.392C118.882 464.784 119.362 464.304 119.954 464.304C120.562 464.304 121.042 464.784 121.042 465.392C121.042 465.984 120.562 466.464 119.954 466.464C119.362 466.464 118.882 465.984 118.882 465.392ZM124.768 471.552V476H123.264V468.304H124.736V469.408C125.296 468.448 126.208 468.08 127.104 468.08C128.944 468.08 129.856 469.408 129.856 471.12V476H128.352V471.376C128.352 470.304 127.904 469.44 126.56 469.44C125.376 469.44 124.768 470.384 124.768 471.552ZM131.689 476.416L133.145 476.08C133.257 477.152 134.073 477.968 135.241 477.968C136.857 477.968 137.593 477.136 137.593 475.472V474.368C137.225 475.072 136.393 475.632 135.241 475.632C133.193 475.632 131.705 474.08 131.705 471.904C131.705 469.824 133.129 468.16 135.241 468.16C136.425 468.16 137.225 468.608 137.609 469.376V468.304H139.097V475.424C139.097 477.376 138.137 479.28 135.241 479.28C133.321 479.28 131.881 478.064 131.689 476.416ZM135.465 474.368C136.761 474.368 137.657 473.392 137.657 471.904C137.657 470.416 136.761 469.44 135.465 469.44C134.137 469.44 133.241 470.416 133.241 471.904C133.241 473.408 134.105 474.368 135.465 474.368ZM18.176 499.04H16.688V494.912C16.288 495.696 15.424 496.208 14.288 496.208C12.08 496.208 10.64 494.368 10.64 492.128C10.64 489.952 12 488.112 14.256 488.112C15.584 488.112 16.4 488.8 16.72 489.488V488.304H18.176V499.04ZM12.176 492.128C12.176 493.712 13.056 494.88 14.432 494.88C15.792 494.88 16.704 493.712 16.704 492.128C16.704 490.544 15.792 489.44 14.432 489.44C13.04 489.44 12.176 490.544 12.176 492.128ZM25.6489 495.072C25.2329 495.872 24.2729 496.24 23.3769 496.24C21.5849 496.24 20.4969 494.896 20.4969 493.152V488.304H22.0009V492.928C22.0009 493.984 22.4809 494.912 23.7449 494.912C24.9609 494.912 25.5689 494.112 25.5689 492.944V488.304H27.0729V494.576C27.0729 495.184 27.1209 495.728 27.1529 496H25.7129C25.6809 495.824 25.6489 495.392 25.6489 495.072ZM30.5373 491.36H34.7453C34.7133 490.256 33.9933 489.392 32.6333 489.392C31.3693 489.392 30.6013 490.368 30.5373 491.36ZM34.9693 493.36L36.2653 493.808C35.8333 495.168 34.6013 496.24 32.8093 496.24C30.7453 496.24 28.9373 494.736 28.9373 492.128C28.9373 489.712 30.6813 488.064 32.6173 488.064C34.9853 488.064 36.3133 489.696 36.3133 492.096C36.3133 492.288 36.2973 492.48 36.2812 492.576H30.4893C30.5213 493.952 31.5133 494.912 32.8093 494.912C34.0573 494.912 34.6813 494.224 34.9693 493.36ZM43.0708 495.072C42.6548 495.872 41.6948 496.24 40.7988 496.24C39.0068 496.24 37.9188 494.896 37.9188 493.152V488.304H39.4228V492.928C39.4228 493.984 39.9028 494.912 41.1668 494.912C42.3828 494.912 42.9908 494.112 42.9908 492.944V488.304H44.4948V494.576C44.4948 495.184 44.5428 495.728 44.5748 496H43.1348C43.1028 495.824 43.0708 495.392 43.0708 495.072ZM47.9591 491.36H52.1671C52.1351 490.256 51.4151 489.392 50.0551 489.392C48.7911 489.392 48.0231 490.368 47.9591 491.36ZM52.3911 493.36L53.6871 493.808C53.2551 495.168 52.0231 496.24 50.2311 496.24C48.1671 496.24 46.3591 494.736 46.3591 492.128C46.3591 489.712 48.1031 488.064 50.0391 488.064C52.4071 488.064 53.7351 489.696 53.7351 492.096C53.7351 492.288 53.7191 492.48 53.7031 492.576H47.9111C47.9431 493.952 48.9351 494.912 50.2311 494.912C51.4791 494.912 52.1031 494.224 52.3911 493.36Z" fill="white"/>
<line x1="244" y1="146.5" x2="264" y2="146.5" stroke="white" stroke-width="3"/>
<line x1="244" y1="278.5" x2="264" y2="278.5" stroke="white" stroke-width="3"/>
<line x1="244" y1="206.5" x2="264" y2="206.5" stroke="white" stroke-width="3"/>
<line x1="244" y1="336.5" x2="264" y2="336.5" stroke="white" stroke-width="3"/>
<line x1="244" y1="396.5" x2="264" y2="396.5" stroke="white" stroke-width="3"/>
<line x1="244" y1="472.5" x2="264" y2="472.5" stroke="white" stroke-width="3"/>
<circle cx="385" cy="142" r="16" fill="white"/>
<path d="M378 142.5L382.333 147L391 138" stroke="black" stroke-width="2" stroke-linecap="round"/>
<circle cx="385" cy="271" r="16" fill="white"/>
<path d="M378.5 271L382.833 275.5L391.5 266.5" stroke="black" stroke-width="2" stroke-linecap="round"/>
<circle cx="385" cy="402" r="16" fill="white"/>
<path d="M378.5 402L382.833 406.5L391.5 397.5" stroke="black" stroke-width="2" stroke-linecap="round"/>
<circle cx="385" cy="208" r="16" fill="white"/>
<path d="M378.5 208L382.833 212.5L391.5 203.5" stroke="black" stroke-width="2" stroke-linecap="round"/>
<circle cx="385" cy="332" r="16" fill="white"/>
<path d="M378.5 332L382.833 336.5L391.5 327.5" stroke="black" stroke-width="2" stroke-linecap="round"/>
<circle cx="385" cy="479" r="16" fill="white"/>
<path d="M378.5 479L382.833 483.5L391.5 474.5" stroke="black" stroke-width="2" stroke-linecap="round"/>
<defs>
<linearGradient id="paint0_linear_133_24" x1="385" y1="0" x2="385" y2="771.5" gradientUnits="userSpaceOnUse">
<stop stop-color="#AD2489"/>
<stop offset="1" stop-color="#004B91"/>
</linearGradient>
</defs>
</svg>
